<svg width="200" height="50" viewBox="0 0 200 50" fill="none" xmlns="http://www.w3.org/2000/svg">
<rect width="200" height="50" fill="#01529B"/>
<path fill-rule="evenodd" clip-rule="evenodd" d="M162.577 21.3968C162.577 21.3968 161.688 22.5821 161.54 22.7303C158.724 23.1254 155.81 23.9157 152.798 25.1998C148.995 26.8791 145.142 29.2498 141.092 32.5095C143.908 29.5461 147.661 25.8913 152.798 23.1254C156.008 21.3474 159.91 19.8657 164.503 19.0755C164.207 19.3224 162.577 21.3968 162.577 21.3968ZM181.394 13.3462C179.073 16.4578 177.443 16.9023 175.418 17.1492L174.628 17.1986L171.912 17.3468L168.751 17.5938C167.466 17.7419 166.479 17.9395 165.688 18.4334C166.775 17.1986 168.356 15.3218 169.738 14.4328C171.22 13.5438 172.899 13.4944 173.937 13.2968L174.579 13.2474H174.677L175.566 13.1981C178.085 12.9017 180.901 12.4572 183.666 10.531C182.629 11.7658 181.394 13.3462 181.394 13.3462Z" fill="black"/>
<path fill-rule="evenodd" clip-rule="evenodd" d="M136.993 36.3127C146.575 29.4969 151.711 26.8298 163.071 26.6816L160.651 29.9414C160.157 30.8304 159.416 30.8304 158.725 30.7316C150.575 30.6822 144.895 31.2749 135.067 38.2389L136.993 36.3127Z" fill="url(#paint0_linear_15_533)"/>
<path fill-rule="evenodd" clip-rule="evenodd" d="M137.487 35.7694C146.871 27.5213 154.823 23.817 161.737 23.0268C162.379 22.286 164.503 19.5201 165.145 18.6311C149.538 21.1006 142.376 31.0774 137.487 35.7694Z" fill="url(#paint1_linear_15_533)"/>
<path fill-rule="evenodd" clip-rule="evenodd" d="M137.438 35.7694C137.289 35.8681 136.993 36.2632 136.697 36.5102C136.598 36.609 136.45 36.8065 136.45 36.8065C138.277 35.4236 141.981 32.7072 145.34 30.9291C148.698 29.1511 152.798 27.7188 158.626 26.9286C159.169 26.3359 160.947 24.1133 161.737 22.928C150.97 24.4591 143.908 30.2377 137.438 35.7694Z" fill="url(#paint2_linear_15_533)"/>
<path fill-rule="evenodd" clip-rule="evenodd" d="M160.404 30.2871C160.503 29.9413 160.749 29.645 159.613 28.9536C158.132 28.1139 157.687 28.509 157.984 27.6694C158.231 26.978 161.243 25.7926 163.466 26.5334C163.466 26.5828 161.441 28.756 160.404 30.2871Z" fill="url(#paint3_linear_15_533)"/>
<path fill-rule="evenodd" clip-rule="evenodd" d="M168.899 17.6433C166.627 17.8903 165.244 18.4335 164.355 19.5201L161.342 23.5207C162.083 22.928 164.059 22.5823 166.232 22.5823H166.528C166.627 22.5823 166.676 22.5823 166.775 22.5823C167.121 22.5823 167.417 22.4835 167.763 22.4835C170.924 22.4341 175.171 21.9896 177.789 19.0756L181.543 14.0872L181.938 13.5439C178.629 17.6927 171.22 17.2482 168.899 17.6433Z" fill="url(#paint4_linear_15_533)"/>
<path fill-rule="evenodd" clip-rule="evenodd" d="M174.529 12.9512C173.541 13.0994 171.368 13.05 169.59 14.1366C167.713 15.2725 165.491 17.9396 164.404 19.3719C165.392 18.3347 166.824 17.989 168.751 17.742C170.677 17.5444 173.443 17.5938 175.468 17.2975C177.394 17.0999 179.172 16.7048 181.592 13.4451L185 9C181.543 12.3585 177.74 12.5067 174.529 12.9512Z" fill="url(#paint5_linear_15_533)"/>
<path fill-rule="evenodd" clip-rule="evenodd" d="M170.628 22.0884C168.306 22.3847 165.59 22.4835 164.8 22.5329C163.516 22.5329 161.738 22.9774 161.244 23.5701C159.713 25.3481 158.33 26.978 157.935 27.7188C158.824 26.8792 161.836 26.978 165.442 26.8298C169.097 26.6816 172.702 25.1012 175.616 21.9402L177.839 18.9768C176.406 20.8042 173.789 21.6439 170.628 22.0884Z" fill="url(#paint6_linear_15_533)"/>
<path fill-rule="evenodd" clip-rule="evenodd" d="M109.73 20.903C111.705 19.4707 114.718 18.9768 116.842 18.9768C119.015 19.0262 121.978 19.4707 124.003 20.903C125.584 21.9896 126.325 23.6195 126.325 25.0023C126.325 26.3853 125.584 27.9657 124.003 29.1017C121.978 30.4847 118.966 30.9786 116.842 30.9786C114.718 30.9786 111.755 30.5341 109.73 29.1017C108.149 27.9657 107.408 26.3853 107.408 25.0023C107.408 23.6195 108.149 22.039 109.73 20.903ZM113.385 28.1633C114.372 29.3981 115.706 29.645 116.842 29.645C118.027 29.645 119.311 29.3981 120.299 28.1633C121.139 27.1755 121.287 26.0396 121.287 25.0518C121.287 24.0146 121.139 22.8786 120.299 21.8908C119.311 20.6067 117.978 20.3597 116.842 20.3597C115.706 20.3597 114.372 20.6561 113.385 21.8908C112.594 22.8786 112.446 24.0146 112.446 25.0518C112.446 25.9901 112.545 27.1755 113.385 28.1633ZM44.6833 28.9535V30.7316H33.3236V19.3225H44.3376V21.0512H37.8675V24.0146H43.9918V25.6938H37.8675V28.9535H44.6833ZM51.3509 21.0512V30.7316H46.8565V19.3225H55.3021C57.0308 19.3225 58.8582 19.3225 60.2411 20.1127C61.3771 20.7548 61.871 21.792 61.871 22.7304C61.871 23.5207 61.3771 24.4591 60.4881 25.0517C59.7472 25.5456 58.5125 25.842 57.7223 25.9408L62.0191 30.6822H56.7345L52.1906 25.0023L52.7339 25.0517C53.7217 25.1999 55.3021 25.1011 56.1912 24.5085C56.8826 24.0639 57.0802 23.57 57.0802 23.0268C57.0802 22.3847 56.7838 21.8908 56.2899 21.5451C55.5985 21.1005 54.8082 21.0512 54.018 21.0512H51.3509ZM88.1464 30.7316V25.8914H94.3201V24.1627H88.1464V21.0512H94.814V19.3225H83.6026V30.7316H88.1464ZM96.4439 19.3225H101.037V28.9535H107.754V30.7316H96.4439V19.3225ZM126.572 21.0512H131.461V30.7316H136.055V21.0512H140.944V19.3225H126.572V21.0512ZM72.5392 18.9768C70.4155 18.9768 67.4027 19.4707 65.4271 20.903C63.8466 22.039 63.1058 23.6195 63.1058 25.0023C63.1058 26.3853 63.8466 27.9657 65.4271 29.1017C67.452 30.5341 70.4155 30.9786 72.5392 30.9786C74.663 30.9786 77.6758 30.4847 79.7008 29.1017C81.2813 27.9657 82.022 26.3853 82.022 25.0023C82.022 23.6195 81.2813 21.9896 79.7008 20.903C77.6758 19.4707 74.663 19.0262 72.5392 18.9768ZM72.5392 29.645C71.4033 29.645 70.0697 29.3981 69.0819 28.1633C68.2423 27.1755 68.0941 25.9901 68.0941 25.0518C68.0941 24.0146 68.2423 22.8786 69.0819 21.8908C70.0697 20.6561 71.4033 20.3597 72.5392 20.3597C73.6752 20.3597 75.0087 20.6067 75.9965 21.8908C76.8362 22.8786 76.9349 24.0146 76.9349 25.0518C76.9349 26.0396 76.7867 27.1755 75.9965 28.1633C75.0087 29.3981 73.6752 29.645 72.5392 29.645ZM19.0499 27.4225L17.2719 30.7316H15L21.2725 19.3225H25.5201L32.4347 30.7316H27.2981L25.3719 27.4225H19.0499ZM22.0628 21.8908L19.8896 25.842H24.4335L22.1122 21.8908H22.0628Z" fill="white"/>
<defs>
<linearGradient id="paint0_linear_15_533" x1="141.437" y1="24.9463" x2="153.534" y2="36.8898" gradientUnits="userSpaceOnUse">
<stop stop-color="#C00318"/>
<stop offset="0.3" stop-color="#E2001A"/>
<stop offset="0.3292" stop-color="#E42323"/>
<stop offset="0.3882" stop-color="#E8513F"/>
<stop offset="0.4709" stop-color="#EF8A7E"/>
<stop offset="0.5292" stop-color="#F5B3B3"/>
<stop offset="0.553" stop-color="#F19990"/>
<stop offset="0.5885" stop-color="#EC7564"/>
<stop offset="0.6237" stop-color="#E85644"/>
<stop offset="0.6577" stop-color="#E53C2F"/>
<stop offset="0.6903" stop-color="#E42323"/>
<stop offset="0.7209" stop-color="#E3051C"/>
<stop offset="0.7475" stop-color="#E2001A"/>
<stop offset="1" stop-color="#C00318"/>
</linearGradient>
<linearGradient id="paint1_linear_15_533" x1="136.268" y1="16.263" x2="166.501" y2="38.2289" gradientUnits="userSpaceOnUse">
<stop stop-color="white"/>
<stop offset="0.34" stop-color="white"/>
<stop offset="0.54" stop-color="white"/>
<stop offset="0.91" stop-color="#D3DBED"/>
<stop offset="1" stop-color="#D3DBED"/>
</linearGradient>
<linearGradient id="paint2_linear_15_533" x1="141.664" y1="22.5619" x2="158.31" y2="38.9942" gradientUnits="userSpaceOnUse">
<stop stop-color="#004B93"/>
<stop offset="0.1296" stop-color="#004B93"/>
<stop offset="0.1708" stop-color="#00559A"/>
<stop offset="0.3067" stop-color="#5378B3"/>
<stop offset="0.4079" stop-color="#7A92C5"/>
<stop offset="0.4622" stop-color="#889DCC"/>
<stop offset="0.4697" stop-color="#8198C9"/>
<stop offset="0.5489" stop-color="#3A6AA9"/>
<stop offset="0.6069" stop-color="#005399"/>
<stop offset="0.6371" stop-color="#004B93"/>
<stop offset="0.9166" stop-color="#004B93"/>
</linearGradient>
<linearGradient id="paint3_linear_15_533" x1="157.706" y1="25.7173" x2="164.123" y2="29.8844" gradientUnits="userSpaceOnUse">
<stop stop-color="#C00318"/>
<stop offset="0.5" stop-color="#E2001A"/>
<stop offset="1" stop-color="#F5B3B3"/>
</linearGradient>
<linearGradient id="paint4_linear_15_533" x1="163.026" y1="11.385" x2="180.713" y2="26.0895" gradientUnits="userSpaceOnUse">
<stop stop-color="#D4DEEF"/>
<stop offset="0.0730286" stop-color="#D4DEEF"/>
<stop offset="0.1174" stop-color="#BCC9E3"/>
<stop offset="0.2114" stop-color="#7E96C5"/>
<stop offset="0.3463" stop-color="#00559A"/>
<stop offset="0.3708" stop-color="#004B93"/>
<stop offset="0.4288" stop-color="#004F96"/>
<stop offset="0.5195" stop-color="#0F5B9E"/>
<stop offset="0.6316" stop-color="#4972AD"/>
<stop offset="0.7606" stop-color="#7E96C5"/>
<stop offset="0.9024" stop-color="#BDCAE4"/>
<stop offset="0.9494" stop-color="#D4DEEF"/>
<stop offset="1" stop-color="#D4DEEF"/>
</linearGradient>
<linearGradient id="paint5_linear_15_533" x1="166.587" y1="7.44817" x2="183.386" y2="21.4152" gradientUnits="userSpaceOnUse">
<stop stop-color="white"/>
<stop offset="0.1742" stop-color="white"/>
<stop offset="0.2463" stop-color="#FAFBFD"/>
<stop offset="0.3435" stop-color="#EBEEF7"/>
<stop offset="0.3865" stop-color="#E3E7F3"/>
<stop offset="0.4746" stop-color="#F0F2F9"/>
<stop offset="0.5941" stop-color="#FBFCFD"/>
<stop offset="0.7" stop-color="white"/>
<stop offset="1" stop-color="white"/>
</linearGradient>
<linearGradient id="paint6_linear_15_533" x1="160.192" y1="16.9175" x2="175.26" y2="29.4448" gradientUnits="userSpaceOnUse">
<stop stop-color="#F5B3B3"/>
<stop offset="0.0561829" stop-color="#F5B3B3"/>
<stop offset="0.071738" stop-color="#F3A5A1"/>
<stop offset="0.1265" stop-color="#EC7867"/>
<stop offset="0.1763" stop-color="#E85240"/>
<stop offset="0.2193" stop-color="#E53229"/>
<stop offset="0.2541" stop-color="#E3101E"/>
<stop offset="0.2761" stop-color="#E2001A"/>
<stop offset="0.294" stop-color="#DF001A"/>
<stop offset="0.4383" stop-color="#C90019"/>
<stop offset="0.5169" stop-color="#C00318"/>
<stop offset="0.574" stop-color="#C90019"/>
<stop offset="0.6789" stop-color="#DF001A"/>
<stop offset="0.6919" stop-color="#E2001A"/>
<stop offset="0.8914" stop-color="#F3A9A6"/>
<stop offset="1" stop-color="#F5B3B3"/>
</linearGradient>
</defs>
</svg>
