<svg version="1.1" id="Layer_1" xmlns="http://www.w3.org/2000/svg" xmlns:xlink="http://www.w3.org/1999/xlink" x="0px" y="0px"
	 width="100%" viewBox="0 0 735 311" enable-background="new 0 0 735 311" xml:space="preserve">
<path fill="#FEFFFF" opacity="1.000000" stroke="none" 
	d="
M736.000000,92.999985 
	C736.000000,165.984909 736.000000,238.969803 736.000000,311.977356 
	C491.065765,311.977356 246.131546,311.977356 1.098657,311.977356 
	C1.098657,208.420624 1.098657,104.841133 1.098657,1.130819 
	C245.999954,1.130819 490.999969,1.130819 736.000000,1.130819 
	C736.000000,29.414152 736.000000,57.742065 735.632141,86.540230 
	C731.821655,89.653000 728.379028,92.295525 724.639526,94.994247 
	C723.888306,95.672554 723.434082,96.294670 722.979797,96.916779 
	C723.197388,97.063751 723.414917,97.210716 723.632507,97.357689 
	C724.103394,96.591537 724.574219,95.825386 725.364014,95.075531 
	C726.756592,96.027901 727.830200,96.963982 728.549133,97.968048 
	C726.672791,98.540321 725.151123,99.044624 723.494751,99.593544 
	C723.905090,101.103485 724.267273,102.436295 724.757629,104.240730 
	C727.123169,102.339546 730.579834,102.041710 729.473145,98.025894 
	C731.871033,96.290871 733.935486,94.645424 736.000000,92.999985 
M124.864670,161.839722 
	C124.864670,161.839722 124.788979,161.732208 124.397827,161.836258 
	C124.397827,161.836258 124.031075,162.008392 123.311653,162.082611 
	C119.607574,165.181732 119.135605,167.652237 122.028549,168.798920 
	C127.897118,171.125015 132.535355,168.403442 133.941910,161.971420 
	C134.659500,161.572845 135.844849,161.319824 136.021286,160.752838 
	C137.553741,155.828293 141.539749,156.414948 145.440216,155.919861 
	C151.884140,155.101883 157.001480,157.781433 162.005447,160.984390 
	C162.005447,160.984390 162.084320,160.897690 162.013931,161.734695 
	C162.881256,163.704544 163.679810,167.333313 164.627136,167.372574 
	C170.387924,167.611389 176.266312,170.629883 182.668213,167.146500 
	C183.132477,167.137222 183.596756,167.127960 184.594208,167.648987 
	C196.963104,167.773376 209.331833,167.935318 221.701035,167.985687 
	C223.791519,167.994202 225.883972,167.522018 228.653244,166.744507 
	C228.653244,164.876816 228.653244,163.009125 228.653244,161.095093 
	C220.846252,161.095093 213.456970,161.095093 205.484970,160.913284 
	C205.080475,160.875061 204.675995,160.836838 204.225922,159.926132 
	C204.138840,156.963074 204.051758,154.000015 204.154922,150.461838 
	C204.170792,150.060593 204.186646,149.659332 204.104248,149.094955 
	C204.104248,149.094955 204.265778,149.195847 204.865662,149.216003 
	C205.252060,149.115768 205.638443,149.015533 206.940384,149.102768 
	C213.354599,149.102768 219.768814,149.102768 226.087341,149.102768 
	C226.087341,146.713226 226.087341,144.959641 226.087341,143.067200 
	C219.232254,143.067200 212.639572,143.067200 205.432083,142.858353 
	C204.945206,142.224030 204.458328,141.589706 204.159698,140.067245 
	C204.159698,137.633072 204.159698,135.198914 204.159698,132.250397 
	C211.146347,132.250397 217.558258,132.378128 223.957214,132.147202 
	C225.305771,132.098557 226.606888,130.734650 228.744247,129.847778 
	C230.433029,128.064758 230.942902,126.614166 227.867767,126.116859 
	C227.867767,126.116859 227.771851,126.266617 227.810318,125.483238 
	C225.815353,124.664879 223.843781,123.215622 221.821243,123.140587 
	C214.257874,122.859970 206.663437,122.755737 199.110565,123.153473 
	C195.704071,123.332855 192.367950,124.848679 188.489868,125.911362 
	C188.314362,125.938034 188.138855,125.964706 187.168060,126.150055 
	C186.785660,131.042511 186.276291,135.930420 186.101486,140.830292 
	C186.051788,142.223175 186.975861,143.650818 187.651505,145.819992 
	C187.587326,146.855377 187.523132,147.890747 186.771988,148.992615 
	C183.967316,150.302902 183.653885,152.326996 184.651779,155.097397 
	C185.478607,157.392883 185.796432,159.871704 186.469040,162.839828 
	C184.188431,162.424530 183.078003,162.222321 182.004486,162.006531 
	C182.004486,162.006531 181.977432,162.037079 181.917603,161.583099 
	C181.788055,161.280426 181.564529,161.085480 180.950256,160.671860 
	C180.950256,160.671860 180.877548,160.236725 180.953888,159.447433 
	C179.292542,156.096588 180.318771,150.942581 174.897476,149.972855 
	C174.897476,149.972855 174.775543,150.217560 174.915924,149.414642 
	C173.006332,144.801865 172.939499,138.980087 166.985626,137.032501 
	C166.985626,137.032501 166.870544,137.146713 166.966125,136.331573 
	C167.285370,132.516769 165.918488,129.872147 162.001144,129.019547 
	C162.001144,129.019547 161.941635,129.089478 161.863693,128.616623 
	C161.718048,128.310272 161.484665,128.102478 160.898788,127.703583 
	C160.898788,127.703583 160.857773,127.313332 160.944351,126.556549 
	C159.570969,125.584732 158.288834,123.986053 156.805405,123.770088 
	C153.604462,123.304062 150.251923,123.880371 147.050491,123.416069 
	C143.183975,122.855331 140.754532,123.503662 139.518051,127.725639 
	C138.376434,131.623596 136.274872,135.230438 134.814896,139.049149 
	C134.035355,141.088089 133.718201,143.303833 133.166809,145.773270 
	C133.166809,145.773270 132.916275,145.994843 132.456482,146.298813 
	C132.348862,146.638794 132.241257,146.978775 132.092529,147.693726 
	C132.092529,147.693726 131.833282,147.967758 131.069977,148.008881 
	C130.392197,149.689499 129.714417,151.370117 128.994644,153.011841 
	C128.994644,153.011841 129.050186,153.024261 128.401703,153.272552 
	C125.891594,154.842133 122.730865,156.097763 125.044495,160.642136 
	C124.941597,161.032639 124.838692,161.423141 124.864670,161.839722 
M281.517883,156.474289 
	C281.517883,156.474289 281.465363,156.355087 281.188477,155.782715 
	C279.690948,153.860992 278.193390,151.939270 276.921661,150.074402 
	C276.921661,150.074402 276.986267,149.850677 277.743500,149.880814 
	C283.288177,148.300598 289.213470,147.207642 290.736420,139.252594 
	C290.554169,138.172501 290.371948,137.092422 290.290161,135.492538 
	C289.950592,134.909790 289.611053,134.327026 289.153137,133.878799 
	C289.153137,133.878799 289.316010,133.804062 289.178345,133.120697 
	C285.934509,131.036362 282.848053,127.514366 279.417175,127.138878 
	C269.369751,126.039223 259.186310,126.151764 249.053787,125.874458 
	C244.795242,125.757912 240.530838,125.855049 236.132385,125.855049 
	C236.132385,128.910782 236.110321,131.236481 236.144211,133.561371 
	C236.156235,134.386063 236.304443,135.208801 236.206055,136.944717 
	C236.268356,141.952393 236.330658,146.960083 236.174683,152.880981 
	C236.174683,157.472534 236.174683,162.064102 236.174683,166.907440 
	C241.921967,166.907440 247.304474,166.907440 252.812408,166.907440 
	C252.812408,155.802292 252.812408,144.915146 253.092133,133.266556 
	C257.586884,133.075729 262.102997,132.532120 266.569824,132.802429 
	C270.343536,133.030777 273.290649,135.155533 273.363281,139.419922 
	C273.432495,143.486542 270.531006,145.324844 267.079315,146.061371 
	C263.801270,146.760834 260.408173,146.921219 256.483124,147.387894 
	C260.120483,151.954956 263.916504,155.794388 266.588379,160.300385 
	C270.293762,166.549393 275.373840,168.234589 282.712585,167.120285 
	C285.312561,167.120285 287.912567,167.120285 290.512543,167.120285 
	C291.000641,166.500839 291.488770,165.881393 291.976868,165.261963 
	C289.127533,163.042313 286.278198,160.822662 283.076508,158.900925 
	C283.076508,158.900925 283.404633,158.576523 283.215179,158.052536 
	C282.686279,157.549377 282.157410,157.046204 281.517883,156.474289 
M700.240967,136.224777 
	C700.240967,136.224777 700.293213,136.203705 700.942139,136.065323 
	C703.027405,133.114944 705.112732,130.164566 707.690613,126.779648 
	C709.322876,124.793770 710.955139,122.807892 713.439941,120.915581 
	C714.599365,120.342155 716.309082,120.072639 716.822754,119.142563 
	C719.005310,115.191185 720.833130,111.043907 722.985168,106.562881 
	C720.204224,106.737030 718.102112,106.868668 716.000000,107.000000 
	C716.000000,107.000000 716.000000,106.999695 715.989746,106.252113 
	C716.009644,103.847626 716.029480,101.443130 716.332764,98.900597 
	C716.208496,98.916840 716.084229,98.933083 715.211792,99.054985 
	C712.762085,100.184006 710.392029,102.002098 707.845825,102.296524 
	C702.771729,102.883232 697.599548,102.598763 692.471741,102.781616 
	C691.965454,102.799675 691.485718,103.561844 690.164062,103.973373 
	C686.975708,104.454697 683.527771,104.334793 680.665039,105.570480 
	C677.138123,107.092903 671.522339,109.585190 671.376709,111.940758 
	C671.058716,117.082901 667.308533,116.273636 664.421692,117.389412 
	C662.062012,117.389412 659.702332,117.389412 657.221741,117.389412 
	C657.105164,119.524277 657.015991,121.157707 656.445312,123.091934 
	C656.199768,123.380104 655.954224,123.668274 655.032349,124.154152 
	C653.683838,125.040833 652.411377,126.508728 650.971436,126.697357 
	C647.619629,127.136421 644.176025,126.815315 640.790405,127.074188 
	C637.699585,127.310516 636.154785,129.223663 637.277649,132.204575 
	C638.867859,136.426544 635.735535,137.390396 633.179382,137.807556 
	C630.504089,138.244110 627.127808,138.139435 627.294800,134.048050 
	C620.810120,131.868805 618.627014,137.633972 614.744263,140.773743 
	C619.690979,140.255737 625.254089,136.861557 627.540894,144.556412 
	C625.791504,145.081116 624.042175,145.605835 621.451477,145.973511 
	C614.057617,143.771408 613.073486,144.255020 610.991943,151.026245 
	C610.991943,151.026245 611.064087,151.067184 610.346741,150.898865 
	C609.409241,148.471756 608.471680,146.044647 607.521301,143.584274 
	C604.296021,146.019821 600.988281,149.087585 597.168396,151.251129 
	C592.842285,153.701416 592.554260,156.412643 595.061279,160.121368 
	C595.061279,160.121368 595.124390,160.071335 594.642944,160.207764 
	C594.335693,160.375595 594.124573,160.624832 593.506042,161.396927 
	C592.671143,161.650009 591.836243,161.903091 590.999512,161.347427 
	C590.916016,159.812683 590.832581,158.277939 590.724365,156.288574 
	C589.415161,156.948502 588.545349,157.154404 588.013794,157.693741 
	C585.191101,160.557938 582.301392,163.385513 579.813782,166.525894 
	C579.313965,167.156830 580.454163,169.086823 580.529297,170.817627 
	C580.373108,170.880692 580.216980,170.943771 579.292664,170.998199 
	C577.180054,172.373962 575.067383,173.749725 572.318237,175.140945 
	C571.040588,176.840820 569.762939,178.540695 568.121033,180.654160 
	C565.447388,183.775467 562.773682,186.896790 560.100037,190.018097 
	C560.105835,189.892563 560.111633,189.767014 560.084290,190.358002 
	C564.288574,187.762802 568.143799,185.383057 572.617615,183.073349 
	C573.059570,182.697250 573.501587,182.321167 573.961853,181.962906 
	C573.961853,181.962906 573.955261,181.939819 574.683960,181.998795 
	C586.125854,175.742493 598.222107,171.286819 611.630188,168.748428 
	C612.027649,168.698318 612.425171,168.648209 613.526306,168.894669 
	C614.710327,168.639053 615.894409,168.383438 618.007385,168.093689 
	C625.932739,167.867096 633.862976,167.734818 641.778992,167.327026 
	C643.204346,167.253571 644.571289,166.045746 646.482971,165.071701 
	C650.061707,161.096146 653.640503,157.120590 658.060608,153.326981 
	C659.775085,153.217697 661.489624,153.108414 663.573486,153.202698 
	C664.252563,153.113541 664.931641,153.024399 666.513611,153.047180 
	C671.010559,151.972168 675.507446,150.897156 680.693787,149.876053 
	C682.465027,148.926224 684.236328,147.976395 686.526611,147.006607 
	C686.659241,146.895294 686.791809,146.783966 687.584045,146.539612 
	C691.327454,143.617157 695.070862,140.694702 699.399536,137.728592 
	C699.672546,137.244553 699.945618,136.760513 700.240967,136.224777 
M432.357330,160.526443 
	C432.357330,149.130890 432.357330,137.735336 432.357330,126.125549 
	C426.326599,126.125549 421.092346,126.125549 415.493958,126.125549 
	C415.493958,138.223740 415.493958,150.121231 415.277557,162.853348 
	C415.277557,164.126297 415.277557,165.399231 415.277557,166.873383 
	C429.192535,166.873383 442.567261,166.873383 456.083038,166.873383 
	C456.083038,164.847183 456.083038,163.078018 456.083038,161.058945 
	C448.261475,161.058945 440.655609,161.058945 432.357330,160.526443 
M541.827759,134.929733 
	C541.888062,143.608871 541.948303,152.287994 541.823486,161.649582 
	C541.886841,162.112350 541.950195,162.575119 541.810852,163.920746 
	C542.435242,164.985611 543.009338,166.934296 543.692078,166.973129 
	C548.429504,167.242691 553.189514,167.115341 558.087219,167.115341 
	C558.087219,155.338562 558.087219,144.231201 558.720032,132.572067 
	C564.441467,132.572067 570.162842,132.572067 576.139099,132.572067 
	C575.992188,129.705536 575.902771,127.961540 575.814331,126.237015 
	C558.351990,126.237015 541.324036,126.237015 524.270630,126.237015 
	C524.270630,128.306915 524.270630,130.046295 524.270630,132.202942 
	C529.004272,132.202942 533.463440,132.061142 537.904053,132.286072 
	C539.304626,132.357025 540.655518,133.410156 541.827759,134.929733 
M493.230164,124.949821 
	C490.163818,125.023117 487.097504,125.096405 483.272827,125.063240 
	C482.526672,125.187332 481.780548,125.311424 480.250397,125.380142 
	C474.406738,127.594765 467.857758,128.786377 462.861969,132.230759 
	C451.432953,140.110489 452.041138,155.083374 464.135559,161.899338 
	C480.511902,171.128433 497.696533,171.153061 514.049194,161.886673 
	C526.605164,154.771698 526.587830,138.695038 514.189148,131.317276 
	C509.087799,128.281708 502.744934,127.332535 496.256958,125.149834 
	C495.495270,125.160782 494.733551,125.171730 493.230164,124.949821 
M323.274109,125.083641 
	C322.526184,125.210106 321.778259,125.336571 320.248901,125.406204 
	C316.114868,126.616562 311.771027,127.366821 307.891876,129.136078 
	C300.524750,132.496216 295.102112,137.897491 295.110565,146.580734 
	C295.118774,155.010178 300.247192,160.400909 307.464813,163.792343 
	C317.736145,168.618652 328.578857,169.294922 339.646759,167.400558 
	C346.989441,166.143784 353.835968,163.792740 358.975769,158.004898 
	C365.029510,151.187851 365.065796,142.274139 359.107880,135.358322 
	C353.278687,128.591888 345.366150,126.448151 336.247253,125.139809 
	C335.489014,125.151505 334.730774,125.163200 333.244629,124.933701 
	C330.174927,125.018997 327.105225,125.104294 323.274109,125.083641 
M394.522919,149.941513 
	C398.806396,149.941513 403.089874,149.941513 407.497375,149.941513 
	C407.497375,147.566437 407.497375,145.698669 407.497375,143.230194 
	C400.102600,143.230194 393.053467,143.230194 385.983032,143.230194 
	C385.983032,139.332977 385.983032,136.043350 385.983032,132.163147 
	C393.916443,132.163147 401.644501,132.163147 409.399231,132.163147 
	C409.399231,129.822372 409.399231,128.077209 409.399231,126.193634 
	C395.859680,126.193634 382.643280,126.193634 369.257141,126.193634 
	C369.257141,139.869720 369.257141,153.261398 369.257141,166.873199 
	C374.732361,166.873199 379.967560,166.873199 385.696991,166.873199 
	C385.696991,161.245071 385.696991,155.842331 385.696991,149.939575 
	C388.635773,149.939575 391.087891,149.939575 394.522919,149.941513 
M611.400940,141.150955 
	C611.186829,141.972626 610.972717,142.794281 610.758606,143.615952 
	C611.351440,143.532242 611.944275,143.448532 612.537109,143.364822 
	C612.333069,142.501617 612.129028,141.638397 611.400940,141.150955 
M631.444458,132.780136 
	C630.800354,132.701263 630.156189,132.622391 629.512085,132.543503 
	C629.556335,132.951263 629.600586,133.359009 629.644836,133.766769 
	C630.405396,133.533478 631.165894,133.300171 631.444458,132.780136 
M718.080627,98.348389 
	C718.302734,98.597046 718.524780,98.845703 718.746887,99.094353 
	C718.919739,98.573914 719.092529,98.053474 719.265381,97.533051 
	C718.909180,97.637688 718.553040,97.742325 718.080627,98.348389 
M721.247620,96.806168 
	C721.369141,96.972038 721.490723,97.137909 721.612305,97.303764 
	C721.586731,97.072151 721.561157,96.840538 721.247620,96.806168 
z"/>
<path fill="#F7F8F9" opacity="1.000000" stroke="none" 
	d="
M724.936462,94.938049 
	C728.379028,92.295525 731.821655,89.653000 735.632141,87.005241 
	C736.000000,88.714355 736.000000,90.428719 736.000000,92.571526 
	C733.935486,94.645424 731.871033,96.290871 729.412354,97.974091 
	C729.018066,98.011856 728.903809,97.900070 728.903809,97.900070 
	C727.830200,96.963982 726.756592,96.027901 725.338013,95.044189 
	C724.993042,94.996552 724.936462,94.938057 724.936462,94.938049 
z"/>
<path fill="#094C92" opacity="1.000000" stroke="none" 
	d="
M282.027161,166.940018 
	C275.373840,168.234589 270.293762,166.549393 266.588379,160.300385 
	C263.916504,155.794388 260.120483,151.954956 256.483124,147.387894 
	C260.408173,146.921219 263.801270,146.760834 267.079315,146.061371 
	C270.531006,145.324844 273.432495,143.486542 273.363281,139.419922 
	C273.290649,135.155533 270.343536,133.030777 266.569824,132.802429 
	C262.102997,132.532120 257.586884,133.075729 252.691269,133.965988 
	C252.191772,143.472717 251.966995,152.281296 252.054901,161.086731 
	C252.091446,164.748734 250.797134,166.371750 247.102921,166.017151 
	C245.783905,165.890533 244.417480,165.838425 243.115143,166.034363 
	C238.785446,166.685760 237.753891,164.666977 237.867386,160.668869 
	C237.949249,157.784760 236.924271,154.869263 236.392975,151.967758 
	C236.330658,146.960083 236.268356,141.952393 236.648621,136.360199 
	C237.386703,135.047272 237.886200,134.335129 237.945801,133.587906 
	C238.470291,127.012611 238.447098,127.007721 245.158310,127.006996 
	C254.442398,127.005997 263.741974,126.701736 273.002747,127.167252 
	C276.594391,127.347794 280.162018,129.111374 283.617889,130.466614 
	C285.642212,131.260468 287.424713,132.670959 289.316010,133.804062 
	C289.316010,133.804062 289.153137,133.878799 289.137817,134.084686 
	C289.478271,134.864487 289.833984,135.438416 290.189728,136.012329 
	C290.371948,137.092422 290.554169,138.172501 290.262970,139.730377 
	C288.048370,141.885040 286.455475,143.762314 284.528320,145.187653 
	C282.160156,146.939163 279.512878,148.313370 276.986267,149.850677 
	C276.986267,149.850677 276.921661,150.074402 276.570068,150.195282 
	C276.272125,153.802078 277.025299,156.680267 281.465363,156.355087 
	C281.465363,156.355087 281.517883,156.474289 281.426208,156.870239 
	C282.024567,157.702957 282.714600,158.139740 283.404633,158.576523 
	C283.404633,158.576523 283.076508,158.900925 283.147736,159.127335 
	C284.344238,161.534714 285.469513,163.715683 286.482788,165.679596 
	C285.340393,166.002762 283.683777,166.471390 282.027161,166.940018 
z"/>
<path fill="#0B4D92" opacity="1.000000" stroke="none" 
	d="
M160.857773,127.313332 
	C160.857773,127.313332 160.898788,127.703583 161.028595,128.102600 
	C161.419479,128.697556 161.680557,128.893524 161.941635,129.089478 
	C161.941635,129.089478 162.001144,129.019547 162.007477,129.381653 
	C163.632721,132.211411 165.251633,134.679062 166.870544,137.146713 
	C166.870544,137.146713 166.985626,137.032501 166.962982,137.422699 
	C169.552078,141.947784 172.163818,146.082672 174.775543,150.217560 
	C174.775543,150.217560 174.897476,149.972855 174.899612,150.431015 
	C176.893677,154.005035 178.885605,157.120880 180.877533,160.236725 
	C180.877548,160.236725 180.950256,160.671860 181.108963,161.069275 
	C181.410675,161.773239 181.647263,161.963379 181.977432,162.037079 
	C181.977432,162.037079 182.004486,162.006531 182.027908,162.363281 
	C182.721222,164.186249 183.391129,165.652481 184.061020,167.118683 
	C183.596756,167.127960 183.132477,167.137222 181.865616,167.104156 
	C174.335449,166.242767 166.025589,170.295441 162.084320,160.897690 
	C162.084320,160.897690 162.005447,160.984390 162.012421,160.605148 
	C160.335724,158.460007 158.652069,156.694107 156.758820,154.677567 
	C153.147156,153.952744 154.953522,151.564850 154.926468,149.511642 
	C152.587204,144.734955 150.196274,140.316208 147.153748,134.693237 
	C144.457916,140.449936 142.273911,145.113663 140.261963,150.092331 
	C141.958267,150.257858 143.482513,150.108429 145.397919,149.850861 
	C146.862198,149.809418 147.935318,149.876129 149.041107,150.320465 
	C149.879425,152.728882 149.880463,154.020004 147.015915,154.061432 
	C143.682678,154.109604 140.356277,154.632950 136.873444,155.054260 
	C136.719955,155.158432 136.349823,155.133102 136.038406,155.229538 
	C135.497818,155.907761 135.268661,156.489532 135.020081,157.044037 
	C135.000641,157.016739 135.067642,157.017456 134.804108,157.166031 
	C134.357620,157.875092 134.174652,158.435577 133.963409,159.241028 
	C133.768646,159.803345 133.507797,159.985718 132.861801,160.200867 
	C132.413071,160.999268 132.255112,161.629868 132.085388,162.471924 
	C132.073639,162.683350 131.822845,163.024628 131.624969,163.180588 
	C131.319275,163.648788 131.211456,163.961029 131.086334,164.477966 
	C131.069046,164.682678 130.793594,164.987518 130.486725,165.023895 
	C129.133987,165.654968 128.088135,166.249664 126.707352,166.913788 
	C125.921974,166.955292 125.471535,166.927368 125.016426,166.469513 
	C124.937500,164.603775 124.863235,163.167984 124.788979,161.732208 
	C124.788979,161.732208 124.864670,161.839722 125.186554,161.836472 
	C125.992058,160.522430 126.475670,159.211624 126.970596,157.666382 
	C126.981903,157.431946 127.189064,157.010696 127.527817,156.932159 
	C128.199829,156.069366 128.533081,155.285095 128.889130,154.251648 
	C128.958023,153.676376 129.004105,153.350327 129.050186,153.024261 
	C129.050186,153.024261 128.994644,153.011841 129.201996,152.996597 
	C129.409363,152.981354 129.781235,152.907181 130.166870,152.929047 
	C133.994354,152.039688 134.837875,150.063889 132.990067,146.738358 
	C132.984344,146.488998 132.916275,145.994843 132.916275,145.994843 
	C132.916275,145.994843 133.166809,145.773270 133.459045,145.383545 
	C136.655563,139.755890 139.533218,134.502884 142.485199,129.291992 
	C143.120956,128.169739 144.043503,126.289612 144.802261,126.305168 
	C150.158737,126.414978 155.506927,126.928589 160.857773,127.313332 
z"/>
<path fill="#0B4D92" opacity="1.000000" stroke="none" 
	d="
M394.031464,149.940552 
	C391.087891,149.939575 388.635773,149.939575 385.696991,149.939575 
	C385.696991,155.842331 385.696991,161.245071 385.696991,166.873199 
	C379.967560,166.873199 374.732361,166.873199 369.257141,166.873199 
	C369.257141,153.261398 369.257141,139.869720 369.257141,126.193634 
	C382.643280,126.193634 395.859680,126.193634 409.399231,126.193634 
	C409.399231,128.077209 409.399231,129.822372 409.399231,132.163147 
	C401.644501,132.163147 393.916443,132.163147 385.983032,132.163147 
	C385.983032,136.043350 385.983032,139.332977 385.983032,143.230194 
	C393.053467,143.230194 400.102600,143.230194 407.497375,143.230194 
	C407.497375,145.698669 407.497375,147.566437 407.497375,149.941513 
	C403.089874,149.941513 398.806396,149.941513 394.031464,149.940552 
z"/>
<path fill="#034A95" opacity="1.000000" stroke="none" 
	d="
M333.972534,125.174896 
	C334.730774,125.163200 335.489014,125.151505 336.710876,125.596504 
	C342.084473,128.856689 349.129456,128.324692 351.483246,135.198883 
	C351.563782,135.433945 352.631683,135.341476 353.240570,135.383347 
	C358.120483,135.718887 359.983734,139.458664 360.881775,143.234650 
	C362.997986,152.132889 356.357147,160.958115 348.451111,162.768433 
	C346.720001,163.164841 345.147217,164.239365 343.418488,164.662033 
	C338.884735,165.770630 334.397980,167.982666 329.402496,166.443909 
	C332.247650,164.759918 334.615082,163.358658 337.151794,161.720123 
	C337.859253,161.272980 338.397491,161.063110 339.120483,161.120361 
	C340.640747,160.722519 342.277222,160.348953 343.255798,159.338318 
	C346.282867,156.212036 347.018921,152.376251 347.118439,147.978058 
	C347.388702,136.035065 342.079132,129.126755 330.192047,128.191666 
	C324.607727,127.752373 318.509491,128.651443 314.521423,132.959290 
	C309.802917,138.056152 309.351898,151.627609 313.987823,157.051163 
	C317.398926,161.041748 322.561401,163.535263 326.618713,166.461670 
	C325.890167,166.508759 324.048431,167.122742 322.560150,166.642166 
	C314.108398,163.912918 305.292908,162.418900 299.465393,154.019226 
	C295.145630,147.792801 297.674805,136.655289 304.896179,133.885956 
	C310.523376,131.727966 315.670074,128.317108 321.030334,125.463043 
	C321.778259,125.336571 322.526184,125.210106 323.958008,125.386642 
	C327.752106,125.518059 330.862305,125.346481 333.972534,125.174896 
z"/>
<path fill="#034A95" opacity="1.000000" stroke="none" 
	d="
M481.034393,125.435524 
	C481.780548,125.311424 482.526672,125.187332 483.952972,125.370117 
	C487.746033,125.512215 490.858948,125.347450 493.971863,125.182678 
	C494.733551,125.171730 495.495270,125.160782 496.717834,125.616653 
	C503.523621,128.294312 509.011993,131.872757 514.571289,135.658051 
	C520.960388,140.008408 523.190491,147.369553 519.263977,153.924667 
	C514.787598,161.397888 506.703339,162.519363 499.911194,165.844330 
	C497.547424,167.001465 494.403717,166.565308 491.616211,166.856857 
	C491.546356,166.518616 491.476532,166.180389 491.406677,165.842163 
	C493.319183,164.614578 495.231720,163.386993 497.512207,162.108231 
	C499.524292,161.151443 501.656158,160.632568 502.731628,159.276093 
	C508.719360,151.724091 508.426514,139.087189 502.305542,131.348297 
	C501.801239,130.710693 501.043854,130.029358 500.297211,129.870544 
	C497.422302,129.259003 494.484314,128.946136 491.606232,128.347046 
	C486.772583,127.340889 475.448517,130.344437 474.448547,133.731628 
	C472.788513,139.354706 471.313538,145.266953 471.267548,151.069321 
	C471.216370,157.527939 475.419830,161.440140 480.992279,162.479095 
	C483.535187,163.872253 485.963501,164.918152 488.391815,165.964050 
	C486.439575,166.697388 484.439392,166.764130 482.581085,166.283035 
	C478.463043,165.216919 474.462128,163.680359 470.325836,162.708664 
	C467.023773,161.932953 464.418884,160.886444 463.866852,157.019485 
	C463.757233,156.251633 462.381653,155.686508 461.631683,154.983307 
	C460.245056,153.683212 458.429260,152.586456 457.607300,150.986313 
	C455.179688,146.260269 457.071320,141.896103 460.197052,138.425491 
	C464.738251,133.383224 470.210510,129.499252 477.012756,127.789749 
	C478.459167,127.426239 479.699249,126.241768 481.034393,125.435524 
z"/>
<path fill="#034A95" opacity="1.000000" stroke="none" 
	d="
M204.271515,160.798615 
	C204.675995,160.836838 205.080475,160.875061 206.074066,161.284515 
	C212.309479,161.769730 217.961578,161.777924 223.597137,162.087372 
	C224.717194,162.148880 225.773880,163.364426 226.859772,164.047821 
	C225.738083,164.697754 224.624023,165.896301 223.493515,165.912033 
	C213.169418,166.055740 202.842087,165.946213 192.516586,166.025635 
	C189.985443,166.045090 188.942322,165.193848 188.966812,162.560287 
	C189.061295,152.401611 189.012283,142.241486 188.995483,132.081940 
	C188.990158,128.864105 190.428116,127.031174 193.760391,127.024857 
	C202.920609,127.007500 212.082413,126.941040 221.239487,127.112946 
	C222.560791,127.137756 223.859482,128.368195 225.168640,129.040710 
	C224.997070,129.639862 224.825516,130.238998 224.653946,130.838150 
	C219.771301,130.838150 214.787018,131.436584 210.041214,130.630676 
	C206.802429,130.080704 203.685196,130.139572 202.746933,132.761551 
	C201.926819,135.053284 203.471481,138.191269 203.971436,140.955399 
	C204.458328,141.589706 204.945206,142.224030 205.898529,143.279327 
	C207.233505,143.979538 208.106964,144.511948 208.969772,144.495224 
	C213.262085,144.412018 217.552368,144.066406 221.841507,144.094833 
	C222.845734,144.101486 223.842682,145.202484 224.842987,145.799988 
	C223.811935,146.532898 222.790253,147.876053 221.748199,147.892044 
	C217.462860,147.957840 213.171799,147.525726 208.881714,147.504059 
	C207.931824,147.499268 206.977249,148.420456 206.024841,148.915283 
	C205.638443,149.015533 205.252060,149.115768 204.469818,149.049225 
	C203.971695,148.819397 203.869431,148.756348 203.767166,148.693314 
	C203.912277,148.881577 204.057388,149.069839 204.202515,149.258087 
	C204.186646,149.659332 204.170792,150.060593 203.692413,150.807220 
	C203.577103,154.367935 203.924316,157.583282 204.271515,160.798615 
z"/>
<path fill="#094C92" opacity="1.000000" stroke="none" 
	d="
M542.013550,163.037888 
	C541.950195,162.575119 541.886841,162.112350 542.216309,161.023193 
	C542.962097,154.869370 543.576721,149.341568 543.568909,143.814636 
	C543.564270,140.546967 542.575378,137.280685 542.029114,134.013779 
	C540.655518,133.410156 539.304626,132.357025 537.904053,132.286072 
	C533.463440,132.061142 529.004272,132.202942 524.270630,132.202942 
	C524.270630,130.046295 524.270630,128.306915 524.270630,126.237015 
	C541.324036,126.237015 558.351990,126.237015 575.814331,126.237015 
	C575.902771,127.961540 575.992188,129.705536 576.139099,132.572067 
	C570.162842,132.572067 564.441467,132.572067 558.077759,133.096222 
	C557.287231,142.866486 557.193542,152.114120 556.935242,161.357132 
	C556.893860,162.838333 556.574707,164.929947 555.589417,165.645721 
	C553.066711,167.478394 544.286987,165.513000 542.013550,163.037888 
z"/>
<path fill="#0B4D92" opacity="1.000000" stroke="none" 
	d="
M415.493958,162.018723 
	C415.493958,150.121231 415.493958,138.223740 415.493958,126.125549 
	C421.092346,126.125549 426.326599,126.125549 432.357330,126.125549 
	C432.357330,137.735336 432.357330,149.130890 432.997467,161.079803 
	C440.653168,161.633148 447.668762,161.633148 454.684326,161.633148 
	C454.838593,162.518036 454.992859,163.402908 455.147125,164.287796 
	C453.480286,164.857956 451.822449,165.888382 450.145172,165.921051 
	C441.485046,166.089645 432.812347,165.790558 424.160095,166.101776 
	C420.312714,166.240158 417.317505,165.659760 415.493958,162.018723 
z"/>
<path fill="#205389" opacity="1.000000" stroke="none" 
	d="
M320.639618,125.434616 
	C315.670074,128.317108 310.523376,131.727966 304.896179,133.885956 
	C297.674805,136.655289 295.145630,147.792801 299.465393,154.019226 
	C305.292908,162.418900 314.108398,163.912918 322.560150,166.642166 
	C324.048431,167.122742 325.890167,166.508759 326.618713,166.461670 
	C322.561401,163.535263 317.398926,161.041748 313.987823,157.051163 
	C309.351898,151.627609 309.802917,138.056152 314.521423,132.959290 
	C318.509491,128.651443 324.607727,127.752373 330.192047,128.191666 
	C342.079132,129.126755 347.388702,136.035065 347.118439,147.978058 
	C347.018921,152.376251 346.282867,156.212036 343.255798,159.338318 
	C342.277222,160.348953 340.640747,160.722519 339.272034,160.818634 
	C348.523071,151.024063 346.634521,135.094879 335.770294,130.994125 
	C329.182037,128.507355 321.453766,130.116409 317.355591,134.828140 
	C312.930206,139.916016 312.170197,149.935303 315.750946,155.982635 
	C319.155457,161.732452 325.417114,164.218552 333.117249,162.844086 
	C334.417023,162.612061 335.694672,162.256088 336.982544,161.957397 
	C334.615082,163.358658 332.247650,164.759918 329.402496,166.443909 
	C334.397980,167.982666 338.884735,165.770630 343.418488,164.662033 
	C345.147217,164.239365 346.720001,163.164841 348.451111,162.768433 
	C356.357147,160.958115 362.997986,152.132889 360.881775,143.234650 
	C359.983734,139.458664 358.120483,135.718887 353.240570,135.383347 
	C352.631683,135.341476 351.563782,135.433945 351.483246,135.198883 
	C349.129456,128.324692 342.084473,128.856689 337.069702,125.723404 
	C345.366150,126.448151 353.278687,128.591888 359.107880,135.358322 
	C365.065796,142.274139 365.029510,151.187851 358.975769,158.004898 
	C353.835968,163.792740 346.989441,166.143784 339.646759,167.400558 
	C328.578857,169.294922 317.736145,168.618652 307.464813,163.792343 
	C300.247192,160.400909 295.118774,155.010178 295.110565,146.580734 
	C295.102112,137.897491 300.524750,132.496216 307.891876,129.136078 
	C311.771027,127.366821 316.114868,126.616562 320.639618,125.434616 
z"/>
<path fill="#D91722" opacity="1.000000" stroke="none" 
	d="
M657.219238,153.145050 
	C653.640503,157.120590 650.061707,161.096146 646.163391,164.904556 
	C642.710754,159.238052 640.747253,158.659485 635.948181,162.516357 
	C632.527527,165.265411 628.931702,166.265839 624.573608,166.131073 
	C621.398682,166.032913 618.188477,167.079025 614.699707,167.705704 
	C613.877808,168.063629 613.350220,168.330872 612.822632,168.598099 
	C612.425171,168.648209 612.027649,168.698318 611.411926,168.452835 
	C613.829407,164.810410 616.465149,161.463577 619.392029,158.057709 
	C620.540161,157.521194 621.397217,157.043716 622.650757,156.552612 
	C625.396423,155.934738 627.745422,155.330475 630.506287,154.812042 
	C634.234985,153.827301 638.302734,153.602921 640.689758,151.484573 
	C644.125854,148.435135 646.339783,144.008438 649.382019,140.123077 
	C650.102112,140.063568 650.515564,140.050522 651.072754,140.194702 
	C651.357361,140.352310 651.498108,140.352692 651.638916,140.353058 
	C651.530212,140.115570 651.421509,139.878067 651.355408,139.545532 
	C651.398010,139.450516 651.531982,139.290955 651.748413,139.481064 
	C652.279053,139.526337 652.593262,139.381500 653.203369,139.090759 
	C653.719177,138.949982 653.939148,138.955139 654.420532,139.217773 
	C656.959167,140.284286 659.236267,141.093323 661.428528,141.872208 
	C658.696594,144.306259 656.037476,146.675415 652.604614,149.733917 
	C651.782471,149.631470 649.671509,149.368439 646.957520,149.030258 
	C648.033752,152.462921 648.776733,154.518524 652.318237,153.181305 
	C653.752075,152.639908 655.573914,153.126312 657.219238,153.145050 
M632.015808,158.962341 
	C633.812317,158.883713 635.608765,158.805084 637.405273,158.726456 
	C632.981689,156.442886 631.933044,156.597244 632.015808,158.962341 
z"/>
<path fill="#205389" opacity="1.000000" stroke="none" 
	d="
M497.144226,162.159424 
	C495.231720,163.386993 493.319183,164.614578 491.406677,165.842163 
	C491.476532,166.180389 491.546356,166.518616 491.616211,166.856857 
	C494.403717,166.565308 497.547424,167.001465 499.911194,165.844330 
	C506.703339,162.519363 514.787598,161.397888 519.263977,153.924667 
	C523.190491,147.369553 520.960388,140.008408 514.571289,135.658051 
	C509.011993,131.872757 503.523621,128.294312 497.072754,125.758911 
	C502.744934,127.332535 509.087799,128.281708 514.189148,131.317276 
	C526.587830,138.695038 526.605164,154.771698 514.049194,161.886673 
	C497.696533,171.153061 480.511902,171.128433 464.135559,161.899338 
	C452.041138,155.083374 451.432953,140.110489 462.861969,132.230759 
	C467.857758,128.786377 474.406738,127.594765 480.642395,125.407837 
	C479.699249,126.241768 478.459167,127.426239 477.012756,127.789749 
	C470.210510,129.499252 464.738251,133.383224 460.197052,138.425491 
	C457.071320,141.896103 455.179688,146.260269 457.607300,150.986313 
	C458.429260,152.586456 460.245056,153.683212 461.631683,154.983307 
	C462.381653,155.686508 463.757233,156.251633 463.866852,157.019485 
	C464.418884,160.886444 467.023773,161.932953 470.325836,162.708664 
	C474.462128,163.680359 478.463043,165.216919 482.581085,166.283035 
	C484.439392,166.764130 486.439575,166.697388 488.391815,165.964050 
	C485.963501,164.918152 483.535187,163.872253 481.069214,162.392868 
	C481.031555,161.959366 481.185089,161.786682 481.590820,161.838776 
	C486.958191,161.879349 491.919830,161.867844 496.947174,161.932068 
	C497.012909,162.007797 497.144226,162.159424 497.144226,162.159424 
z"/>
<path fill="#BF1218" opacity="1.000000" stroke="none" 
	d="
M657.639893,153.236023 
	C655.573914,153.126312 653.752075,152.639908 652.318237,153.181305 
	C648.776733,154.518524 648.033752,152.462921 646.957520,149.030258 
	C649.671509,149.368439 651.782471,149.631470 652.604614,149.733917 
	C656.037476,146.675415 658.696594,144.306259 661.428528,141.872208 
	C659.236267,141.093323 656.959167,140.284286 654.664795,138.952362 
	C656.898438,138.011841 659.133301,137.438751 661.403198,137.204468 
	C669.576538,136.360947 677.761719,135.631683 686.346191,134.951782 
	C687.850220,135.063278 688.950439,135.082275 689.977966,135.443054 
	C686.805725,137.895081 683.706177,140.005310 680.751831,142.016663 
	C681.655640,142.580780 682.672302,143.215347 683.688965,143.849899 
	C683.388916,144.195175 683.088867,144.540451 682.788757,144.885727 
	C681.226562,145.126358 679.664368,145.366989 677.937378,145.633011 
	C678.812439,147.406494 679.408447,148.614304 680.004395,149.822128 
	C675.507446,150.897156 671.010559,151.972168 665.762573,152.988205 
	C664.409058,152.952530 663.806580,152.975830 663.204102,152.999146 
	C661.489624,153.108414 659.775085,153.217697 657.639893,153.236023 
z"/>
<path fill="#7585BA" opacity="1.000000" stroke="none" 
	d="
M622.254211,156.566238 
	C621.397217,157.043716 620.540161,157.521194 618.996033,158.042038 
	C611.828918,160.133270 605.003113,161.467499 598.952026,164.400269 
	C590.388245,168.550858 582.396301,173.881256 573.787415,178.904465 
	C571.771667,179.481201 570.128479,179.860870 568.485229,180.240555 
	C569.762939,178.540695 571.040588,176.840820 572.833008,175.375702 
	C575.585449,174.075912 577.823120,172.541382 580.060791,171.006836 
	C580.216980,170.943771 580.373108,170.880692 580.960205,170.498810 
	C584.594543,167.505386 587.797974,164.830765 591.001343,162.156174 
	C591.836243,161.903091 592.671143,161.650009 594.010803,161.130768 
	C594.718506,160.600174 594.921448,160.335754 595.124390,160.071320 
	C595.124390,160.071335 595.061279,160.121368 595.421814,160.003235 
	C600.876282,156.945816 605.970154,154.006500 611.064087,151.067200 
	C611.064087,151.067184 610.991943,151.026245 611.386414,151.023529 
	C615.284851,149.390732 618.788818,147.760635 622.292786,146.130539 
	C624.042175,145.605835 625.791504,145.081116 628.038574,144.329041 
	C628.536194,144.101654 629.010681,143.947525 629.341919,143.963867 
	C630.114136,143.983337 630.555237,143.986465 630.975464,144.345932 
	C629.320679,146.693390 627.603088,148.622910 626.077393,150.693802 
	C624.694336,152.571198 623.520386,154.602707 622.254211,156.566238 
z"/>
<path fill="#F7F8F9" opacity="1.000000" stroke="none" 
	d="
M716.000000,107.000305 
	C718.102112,106.868668 720.204224,106.737030 722.985168,106.562881 
	C720.833130,111.043907 719.005310,115.191185 716.822754,119.142563 
	C716.309082,120.072639 714.599365,120.342155 713.152771,120.545975 
	C713.977600,118.368378 715.089600,116.560387 716.768066,113.831284 
	C711.900452,115.780693 708.301575,117.222000 704.337280,118.675385 
	C702.629700,119.172661 701.287659,119.657875 699.579468,120.093079 
	C698.478760,119.985428 697.744019,119.927788 696.927246,119.520660 
	C695.863403,118.955307 694.883972,118.727646 693.899231,118.526253 
	C692.320129,118.203316 689.804504,118.384628 689.337708,117.490189 
	C688.118713,115.154045 690.046387,114.516182 692.135742,113.637482 
	C695.405762,112.262222 698.684143,110.270126 697.614197,105.667198 
	C695.284424,105.072990 693.139038,104.525826 690.993652,103.978645 
	C691.485718,103.561844 691.965454,102.799675 692.471741,102.781616 
	C697.599548,102.598763 702.771729,102.883232 707.845825,102.296524 
	C710.392029,102.002098 712.762085,100.184006 715.606689,99.025970 
	C716.001648,98.996956 716.049316,99.038643 716.049316,99.038643 
	C716.029480,101.443130 716.009644,103.847626 715.593384,106.625587 
	C711.082825,106.841072 708.248047,108.686722 706.173340,112.271400 
	C712.126526,114.689766 714.339844,111.318909 716.000000,107.000305 
z"/>
<path fill="#DEF0F9" opacity="1.000000" stroke="none" 
	d="
M690.578857,103.976013 
	C693.139038,104.525826 695.284424,105.072990 697.614197,105.667198 
	C698.684143,110.270126 695.405762,112.262222 692.135742,113.637482 
	C690.046387,114.516182 688.118713,115.154045 689.337708,117.490189 
	C689.804504,118.384628 692.320129,118.203316 693.899231,118.526253 
	C694.883972,118.727646 695.863403,118.955307 696.461487,119.585709 
	C686.420715,120.759628 676.763611,121.519028 667.063843,121.984879 
	C666.602051,120.303116 662.577820,120.853188 665.002197,117.936203 
	C667.308533,116.273636 671.058716,117.082901 671.376709,111.940758 
	C671.522339,109.585190 677.138123,107.092903 680.665039,105.570480 
	C683.527771,104.334793 686.975708,104.454697 690.578857,103.976013 
M669.520264,118.927338 
	C669.769836,118.778648 670.019409,118.629959 670.268982,118.481285 
	C670.011658,118.343811 669.689087,118.041527 669.513611,118.110931 
	C669.298279,118.196114 669.205750,118.592003 669.520264,118.927338 
M686.397766,105.497459 
	C686.397766,105.497459 686.517883,105.433876 686.397766,105.497459 
z"/>
<path fill="#EA8F8A" opacity="1.000000" stroke="none" 
	d="
M574.159912,178.707397 
	C582.396301,173.881256 590.388245,168.550858 598.952026,164.400269 
	C605.003113,161.467499 611.828918,160.133270 618.704895,158.101074 
	C616.465149,161.463577 613.829407,164.810410 611.112183,168.474396 
	C598.222107,171.286819 586.125854,175.742493 574.356201,181.566589 
	C574.072266,180.325394 574.116089,179.516403 574.159912,178.707397 
z"/>
<path fill="#164A82" opacity="1.000000" stroke="none" 
	d="
M204.065567,140.511322 
	C203.471481,138.191269 201.926819,135.053284 202.746933,132.761551 
	C203.685196,130.139572 206.802429,130.080704 210.041214,130.630676 
	C214.787018,131.436584 219.771301,130.838150 224.653946,130.838150 
	C224.825516,130.238998 224.997070,129.639862 225.168640,129.040710 
	C223.859482,128.368195 222.560791,127.137756 221.239487,127.112946 
	C212.082413,126.941040 202.920609,127.007500 193.760391,127.024857 
	C190.428116,127.031174 188.990158,128.864105 188.995483,132.081940 
	C189.012283,142.241486 189.061295,152.401611 188.966812,162.560287 
	C188.942322,165.193848 189.985443,166.045090 192.516586,166.025635 
	C202.842087,165.946213 213.169418,166.055740 223.493515,165.912033 
	C224.624023,165.896301 225.738083,164.697754 226.859772,164.047821 
	C225.773880,163.364426 224.717194,162.148880 223.597137,162.087372 
	C217.961578,161.777924 212.309479,161.769730 206.365433,161.375427 
	C213.456970,161.095093 220.846252,161.095093 228.653244,161.095093 
	C228.653244,163.009125 228.653244,164.876816 227.855087,166.918488 
	C214.025452,167.092484 200.993988,167.092484 187.458939,167.092484 
	C187.458939,160.500381 187.458939,154.713257 187.458939,148.926132 
	C187.523132,147.890747 187.587326,146.855377 187.681763,144.984543 
	C187.795807,138.096527 187.879578,132.043945 187.963348,125.991379 
	C188.138855,125.964706 188.314362,125.938034 189.204239,125.935577 
	C202.536362,126.062057 215.154099,126.164337 227.771851,126.266617 
	C227.771851,126.266617 227.867767,126.116859 227.753448,126.483063 
	C227.736038,127.891777 227.832962,128.934280 227.929871,129.976776 
	C226.606888,130.734650 225.305771,132.098557 223.957214,132.147202 
	C217.558258,132.378128 211.146347,132.250397 204.159698,132.250397 
	C204.159698,135.198914 204.159698,137.633072 204.065567,140.511322 
z"/>
<path fill="#F7F8F9" opacity="1.000000" stroke="none" 
	d="
M629.010681,143.947510 
	C629.010681,143.947525 628.536194,144.101654 628.286865,144.096512 
	C625.254089,136.861557 619.690979,140.255737 614.744263,140.773743 
	C618.627014,137.633972 620.810120,131.868805 627.294800,134.048050 
	C627.127808,138.139435 630.504089,138.244110 633.179382,137.807556 
	C635.735535,137.390396 638.867859,136.426544 637.277649,132.204575 
	C636.154785,129.223663 637.699585,127.310516 640.790405,127.074188 
	C644.176025,126.815315 647.619629,127.136421 650.971436,126.697357 
	C652.411377,126.508728 653.683838,125.040833 655.465088,124.454788 
	C654.371155,127.431053 652.844543,130.106689 651.893311,131.773834 
	C649.542236,131.272217 648.031128,130.456055 647.410706,130.895966 
	C642.686401,134.246017 639.930481,140.523132 632.876587,140.485458 
	C632.593445,140.483948 632.301331,142.164597 631.869995,143.146576 
	C631.726685,143.231659 631.396912,143.183426 631.059937,143.134598 
	C630.152222,143.373016 629.581421,143.660263 629.010681,143.947510 
z"/>
<path fill="#D91722" opacity="1.000000" stroke="none" 
	d="
M680.349121,149.849091 
	C679.408447,148.614304 678.812439,147.406494 677.937378,145.633011 
	C679.664368,145.366989 681.226562,145.126358 682.788757,144.885727 
	C683.088867,144.540451 683.388916,144.195175 683.688965,143.849899 
	C682.672302,143.215347 681.655640,142.580780 680.751831,142.016663 
	C683.706177,140.005310 686.805725,137.895081 690.319458,135.244049 
	C691.463318,134.395447 692.192932,134.087677 692.996948,133.793945 
	C693.071289,133.807983 693.431030,133.590363 693.938843,133.443527 
	C695.142212,133.169998 695.837830,133.043304 696.918823,132.881790 
	C698.300537,133.965897 699.296875,135.084793 700.293213,136.203705 
	C700.293213,136.203705 700.240967,136.224777 699.940186,136.281250 
	C699.364380,136.815903 699.089355,137.294083 698.814331,137.772263 
	C695.070862,140.694702 691.327454,143.617157 687.108459,146.454117 
	C686.331482,146.338547 686.030029,146.308487 685.728638,146.278412 
	C685.821594,146.527786 685.914612,146.777176 686.007568,147.026550 
	C684.236328,147.976395 682.465027,148.926224 680.349121,149.849091 
z"/>
<path fill="#DEF0F9" opacity="1.000000" stroke="none" 
	d="
M632.013367,143.061493 
	C632.301331,142.164597 632.593445,140.483948 632.876587,140.485458 
	C639.930481,140.523132 642.686401,134.246017 647.410706,130.895966 
	C648.031128,130.456055 649.542236,131.272217 651.893311,131.773834 
	C652.844543,130.106689 654.371155,127.431053 655.803284,124.355942 
	C655.954224,123.668274 656.199768,123.380104 656.973633,123.101593 
	C658.479370,123.089249 659.476440,122.942604 660.426880,123.092110 
	C660.994324,123.181374 661.488770,123.735016 661.940918,124.410248 
	C658.552002,129.379471 655.238098,134.018341 651.749512,138.768250 
	C651.574829,138.879272 651.531982,139.290955 651.531982,139.290955 
	C651.531982,139.290955 651.398010,139.450516 651.208801,139.591507 
	C651.019592,139.732498 650.928955,140.037460 650.928955,140.037460 
	C650.515564,140.050522 650.102112,140.063568 648.967407,140.014450 
	C644.529053,140.699036 640.812012,141.445786 636.723999,142.160034 
	C634.906372,142.438858 633.459900,142.750183 632.013367,143.061493 
M658.594543,125.529663 
	C658.594543,125.529663 658.473694,125.602264 658.594543,125.529663 
z"/>
<path fill="#F7F8F9" opacity="1.000000" stroke="none" 
	d="
M610.705444,150.983032 
	C605.970154,154.006500 600.876282,156.945816 595.461914,159.999542 
	C592.554260,156.412643 592.842285,153.701416 597.168396,151.251129 
	C600.988281,149.087585 604.296021,146.019821 607.521301,143.584274 
	C608.471680,146.044647 609.409241,148.471756 610.705444,150.983032 
z"/>
<path fill="#BF1218" opacity="1.000000" stroke="none" 
	d="
M614.993958,167.615005 
	C618.188477,167.079025 621.398682,166.032913 624.573608,166.131073 
	C628.931702,166.265839 632.527527,165.265411 635.948181,162.516357 
	C640.747253,158.659485 642.710754,159.238052 645.904541,165.049530 
	C644.571289,166.045746 643.204346,167.253571 641.778992,167.327026 
	C633.862976,167.734818 625.932739,167.867096 617.208984,167.977493 
	C615.938354,167.779205 615.466187,167.697113 614.993958,167.615005 
z"/>
<path fill="#205389" opacity="1.000000" stroke="none" 
	d="
M289.247192,133.462372 
	C287.424713,132.670959 285.642212,131.260468 283.617889,130.466614 
	C280.162018,129.111374 276.594391,127.347794 273.002747,127.167252 
	C263.741974,126.701736 254.442398,127.005997 245.158310,127.006996 
	C238.447098,127.007721 238.470291,127.012611 237.945801,133.587906 
	C237.886200,134.335129 237.386703,135.047272 236.740829,135.904053 
	C236.304443,135.208801 236.156235,134.386063 236.144211,133.561371 
	C236.110321,131.236481 236.132385,128.910782 236.132385,125.855049 
	C240.530838,125.855049 244.795242,125.757912 249.053787,125.874458 
	C259.186310,126.151764 269.369751,126.039223 279.417175,127.138878 
	C282.848053,127.514366 285.934509,131.036362 289.247192,133.462372 
z"/>
<path fill="#7585BA" opacity="1.000000" stroke="none" 
	d="
M704.702698,118.663315 
	C708.301575,117.222000 711.900452,115.780693 716.768066,113.831284 
	C715.089600,116.560387 713.977600,118.368378 712.726501,120.499191 
	C710.955139,122.807892 709.322876,124.793770 707.116089,127.110596 
	C703.813416,128.693924 701.085205,129.946304 698.250122,130.827469 
	C699.591187,128.244736 701.143555,126.092766 702.451843,123.801460 
	C703.373779,122.186752 703.964233,120.382774 704.702698,118.663315 
z"/>
<path fill="#DEF0F9" opacity="1.000000" stroke="none" 
	d="
M187.115463,148.959381 
	C187.458939,154.713257 187.458939,160.500381 187.458939,167.092484 
	C200.993988,167.092484 214.025452,167.092484 227.516220,167.182220 
	C225.883972,167.522018 223.791519,167.994202 221.701035,167.985687 
	C209.331833,167.935318 196.963104,167.773376 184.327606,167.383850 
	C183.391129,165.652481 182.721222,164.186249 182.009445,162.370071 
	C183.078003,162.222321 184.188431,162.424530 186.469040,162.839828 
	C185.796432,159.871704 185.478607,157.392883 184.651779,155.097397 
	C183.653885,152.326996 183.967316,150.302902 187.115463,148.959381 
z"/>
<path fill="#DEF0F9" opacity="1.000000" stroke="none" 
	d="
M227.791077,125.874924 
	C215.154099,126.164337 202.536362,126.062057 189.459259,125.858963 
	C192.367950,124.848679 195.704071,123.332855 199.110565,123.153473 
	C206.663437,122.755737 214.257874,122.859970 221.821243,123.140587 
	C223.843781,123.215622 225.815353,124.664879 227.791077,125.874924 
z"/>
<path fill="#DEF0F9" opacity="1.000000" stroke="none" 
	d="
M160.901062,126.934937 
	C155.506927,126.928589 150.158737,126.414978 144.802261,126.305168 
	C144.043503,126.289612 143.120956,128.169739 142.485199,129.291992 
	C139.533218,134.502884 136.655563,139.755890 133.471817,145.216797 
	C133.718201,143.303833 134.035355,141.088089 134.814896,139.049149 
	C136.274872,135.230438 138.376434,131.623596 139.518051,127.725639 
	C140.754532,123.503662 143.183975,122.855331 147.050491,123.416069 
	C150.251923,123.880371 153.604462,123.304062 156.805405,123.770088 
	C158.288834,123.986053 159.570969,125.584732 160.901062,126.934937 
z"/>
<path fill="#164A82" opacity="1.000000" stroke="none" 
	d="
M415.385742,162.436035 
	C417.317505,165.659760 420.312714,166.240158 424.160095,166.101776 
	C432.812347,165.790558 441.485046,166.089645 450.145172,165.921051 
	C451.822449,165.888382 453.480286,164.857956 455.147125,164.287796 
	C454.992859,163.402908 454.838593,162.518036 454.684326,161.633148 
	C447.668762,161.633148 440.653168,161.633148 433.343689,161.346039 
	C440.655609,161.058945 448.261475,161.058945 456.083038,161.058945 
	C456.083038,163.078018 456.083038,164.847183 456.083038,166.873383 
	C442.567261,166.873383 429.192535,166.873383 415.277557,166.873383 
	C415.277557,165.399231 415.277557,164.126297 415.385742,162.436035 
z"/>
<path fill="#205389" opacity="1.000000" stroke="none" 
	d="
M236.283829,152.424377 
	C236.924271,154.869263 237.949249,157.784760 237.867386,160.668869 
	C237.753891,164.666977 238.785446,166.685760 243.115143,166.034363 
	C244.417480,165.838425 245.783905,165.890533 247.102921,166.017151 
	C250.797134,166.371750 252.091446,164.748734 252.054901,161.086731 
	C251.966995,152.281296 252.191772,143.472717 252.551407,134.346710 
	C252.812408,144.915146 252.812408,155.802292 252.812408,166.907440 
	C247.304474,166.907440 241.921967,166.907440 236.174683,166.907440 
	C236.174683,162.064102 236.174683,157.472534 236.283829,152.424377 
z"/>
<path fill="#F7F8F9" opacity="1.000000" stroke="none" 
	d="
M591.000427,161.751801 
	C587.797974,164.830765 584.594543,167.505386 581.114746,170.298950 
	C580.454163,169.086823 579.313965,167.156830 579.813782,166.525894 
	C582.301392,163.385513 585.191101,160.557938 588.013794,157.693741 
	C588.545349,157.154404 589.415161,156.948502 590.724365,156.288574 
	C590.832581,158.277939 590.916016,159.812683 591.000427,161.751801 
z"/>
<path fill="#BF1218" opacity="1.000000" stroke="none" 
	d="
M573.787476,178.904465 
	C574.116089,179.516403 574.072266,180.325394 573.991821,181.537109 
	C573.955261,181.939819 573.961853,181.962906 573.650085,181.907166 
	C572.891907,182.235397 572.445496,182.619354 571.999084,183.003326 
	C568.143799,185.383057 564.288574,187.762802 560.084290,190.358002 
	C560.111633,189.767014 560.105835,189.892563 560.100037,190.018097 
	C562.773682,186.896790 565.447388,183.775467 568.303101,180.447357 
	C570.128479,179.860870 571.771667,179.481201 573.787476,178.904465 
z"/>
<path fill="#DEF0F9" opacity="1.000000" stroke="none" 
	d="
M136.349823,155.133102 
	C136.349823,155.133102 136.719955,155.158432 137.335785,155.115265 
	C144.290558,155.024139 150.629471,154.976181 156.968399,154.928223 
	C158.652069,156.694107 160.335724,158.460007 162.063492,160.576416 
	C157.001480,157.781433 151.884140,155.101883 145.440216,155.919861 
	C141.539749,156.414948 137.553741,155.828293 136.021286,160.752838 
	C135.844849,161.319824 134.659500,161.572845 133.518387,162.026566 
	C133.094864,162.081711 132.942719,161.947311 132.957855,161.626312 
	C133.032852,160.881241 133.092712,160.457169 133.152557,160.033081 
	C133.507797,159.985718 133.768646,159.803345 134.206985,159.070755 
	C134.675110,158.109512 134.871368,157.563477 135.067642,157.017456 
	C135.067642,157.017456 135.000641,157.016739 135.266083,156.870438 
	C135.804291,156.193802 136.077057,155.663452 136.349823,155.133102 
z"/>
<path fill="#F7F8F9" opacity="1.000000" stroke="none" 
	d="
M662.015991,124.079910 
	C661.488770,123.735016 660.994324,123.181374 660.426880,123.092110 
	C659.476440,122.942604 658.479370,123.089249 657.214355,122.951187 
	C657.015991,121.157707 657.105164,119.524277 657.221741,117.389412 
	C659.702332,117.389412 662.062012,117.389412 664.711914,117.662811 
	C662.577820,120.853188 666.602051,120.303116 666.817749,122.220116 
	C665.081604,123.192558 663.548767,123.636230 662.015991,124.079910 
z"/>
<path fill="#164A82" opacity="1.000000" stroke="none" 
	d="
M541.912231,163.479309 
	C544.286987,165.513000 553.066711,167.478394 555.589417,165.645721 
	C556.574707,164.929947 556.893860,162.838333 556.935242,161.357132 
	C557.193542,152.114120 557.287231,142.866486 557.761353,133.372101 
	C558.087219,144.231201 558.087219,155.338562 558.087219,167.115341 
	C553.189514,167.115341 548.429504,167.242691 543.692078,166.973129 
	C543.009338,166.934296 542.435242,164.985611 541.912231,163.479309 
z"/>
<path fill="#164A82" opacity="1.000000" stroke="none" 
	d="
M206.482605,149.009033 
	C206.977249,148.420456 207.931824,147.499268 208.881714,147.504059 
	C213.171799,147.525726 217.462860,147.957840 221.748199,147.892044 
	C222.790253,147.876053 223.811935,146.532898 224.842987,145.799988 
	C223.842682,145.202484 222.845734,144.101486 221.841507,144.094833 
	C217.552368,144.066406 213.262085,144.412018 208.969772,144.495224 
	C208.106964,144.511948 207.233505,143.979538 206.205933,143.383759 
	C212.639572,143.067200 219.232254,143.067200 226.087341,143.067200 
	C226.087341,144.959641 226.087341,146.713226 226.087341,149.102768 
	C219.768814,149.102768 213.354599,149.102768 206.482605,149.009033 
z"/>
<path fill="#DEF0F9" opacity="1.000000" stroke="none" 
	d="
M125.021095,166.899460 
	C125.471535,166.927368 125.921974,166.955292 127.047821,167.007629 
	C128.746689,166.350540 129.770142,165.669022 130.793594,164.987518 
	C130.793594,164.987518 131.069046,164.682678 131.309113,164.340012 
	C131.640411,163.673111 131.731628,163.348862 131.822845,163.024628 
	C131.822845,163.024628 132.073639,162.683350 132.297348,162.395172 
	C132.521057,162.106979 132.942719,161.947311 132.942719,161.947311 
	C132.942719,161.947311 133.094864,162.081711 133.175385,162.146393 
	C132.535355,168.403442 127.897118,171.125015 122.028549,168.798920 
	C119.135605,167.652237 119.607574,165.181732 123.636810,162.408264 
	C123.275230,163.979385 122.588486,165.224838 121.665108,166.899460 
	C123.117027,166.899460 124.069061,166.899460 125.021095,166.899460 
z"/>
<path fill="#DEF0F9" opacity="1.000000" stroke="none" 
	d="
M187.565704,126.070717 
	C187.879578,132.043945 187.795807,138.096527 187.582703,144.605804 
	C186.975861,143.650818 186.051788,142.223175 186.101486,140.830292 
	C186.276291,135.930420 186.785660,131.042511 187.565704,126.070717 
z"/>
<path fill="#DEF0F9" opacity="1.000000" stroke="none" 
	d="
M162.049133,161.316193 
	C166.025589,170.295441 174.335449,166.242767 181.520447,167.150940 
	C176.266312,170.629883 170.387924,167.611389 164.627136,167.372574 
	C163.679810,167.333313 162.881256,163.704544 162.049133,161.316193 
z"/>
<path fill="#EA8F8A" opacity="1.000000" stroke="none" 
	d="
M698.357056,131.198669 
	C701.085205,129.946304 703.813416,128.693924 706.869812,127.327866 
	C705.112732,130.164566 703.027405,133.114944 700.617676,136.134521 
	C699.296875,135.084793 698.300537,133.965897 696.868042,132.735321 
	C696.431946,132.623672 696.415771,132.314957 696.669922,132.282272 
	C697.316101,131.948929 697.708252,131.648254 698.174927,131.328156 
	C698.249390,131.308716 698.357056,131.198669 698.357056,131.198669 
z"/>
<path fill="#F7F8F9" opacity="1.000000" stroke="none" 
	d="
M621.872131,146.052032 
	C618.788818,147.760635 615.284851,149.390732 611.420105,151.050720 
	C613.073486,144.255020 614.057617,143.771408 621.872131,146.052032 
z"/>
<path fill="#205389" opacity="1.000000" stroke="none" 
	d="
M282.369873,167.030151 
	C283.683777,166.471390 285.340393,166.002762 286.482788,165.679596 
	C285.469513,163.715683 284.344238,161.534714 283.323914,158.978378 
	C286.278198,160.822662 289.127533,163.042313 291.976868,165.261963 
	C291.488770,165.881393 291.000641,166.500839 290.512543,167.120285 
	C287.912567,167.120285 285.312561,167.120285 282.369873,167.030151 
z"/>
<path fill="#DEF0F9" opacity="1.000000" stroke="none" 
	d="
M174.845734,149.816101 
	C172.163818,146.082672 169.552078,141.947784 166.892639,137.462982 
	C172.939499,138.980087 173.006332,144.801865 174.845734,149.816101 
z"/>
<path fill="#205389" opacity="1.000000" stroke="none" 
	d="
M277.364868,149.865753 
	C279.512878,148.313370 282.160156,146.939163 284.528320,145.187653 
	C286.455475,143.762314 288.048370,141.885040 290.081665,140.111450 
	C289.213470,147.207642 283.288177,148.300598 277.364868,149.865753 
z"/>
<path fill="#164A82" opacity="1.000000" stroke="none" 
	d="
M541.928467,134.471756 
	C542.575378,137.280685 543.564270,140.546967 543.568909,143.814636 
	C543.576721,149.341568 542.962097,154.869370 542.308899,160.681976 
	C541.948303,152.287994 541.888062,143.608871 541.928467,134.471756 
z"/>
<path fill="#F7F8F9" opacity="1.000000" stroke="none" 
	d="
M729.078918,98.063660 
	C730.579834,102.041710 727.123169,102.339546 724.757629,104.240730 
	C724.267273,102.436295 723.905090,101.103485 723.494751,99.593544 
	C725.151123,99.044624 726.672791,98.540321 728.549133,97.968048 
	C728.903809,97.900070 729.018066,98.011856 729.078918,98.063660 
z"/>
<path fill="#DEF0F9" opacity="1.000000" stroke="none" 
	d="
M180.915710,159.842072 
	C178.885605,157.120880 176.893677,154.005035 174.828812,150.549255 
	C180.318771,150.942581 179.292542,156.096588 180.915710,159.842072 
z"/>
<path fill="#DEF0F9" opacity="1.000000" stroke="none" 
	d="
M166.918335,136.739136 
	C165.251633,134.679062 163.632721,132.211411 161.965347,129.399872 
	C165.918488,129.872147 167.285370,132.516769 166.918335,136.739136 
z"/>
<path fill="#205389" opacity="1.000000" stroke="none" 
	d="
M281.326904,156.068909 
	C277.025299,156.680267 276.272125,153.802078 276.457153,150.166855 
	C278.193390,151.939270 279.690948,153.860992 281.326904,156.068909 
z"/>
<path fill="#205389" opacity="1.000000" stroke="none" 
	d="
M333.608582,125.054298 
	C330.862305,125.346481 327.752106,125.518059 324.338684,125.439621 
	C327.105225,125.104294 330.174927,125.018997 333.608582,125.054298 
z"/>
<path fill="#205389" opacity="1.000000" stroke="none" 
	d="
M493.601013,125.066254 
	C490.858948,125.347450 487.746033,125.512215 484.332153,125.423340 
	C487.097504,125.096405 490.163818,125.023117 493.601013,125.066254 
z"/>
<path fill="#DEF0F9" opacity="1.000000" stroke="none" 
	d="
M127.189072,157.010696 
	C127.189064,157.010696 126.981903,157.431946 126.729050,157.825897 
	C126.029610,158.826355 125.583031,159.432861 125.136452,160.039352 
	C122.730865,156.097763 125.891594,154.842133 128.725952,153.148407 
	C129.004105,153.350327 128.958023,153.676376 128.635803,154.443329 
	C127.969452,155.593033 127.579262,156.301865 127.189072,157.010696 
z"/>
<path fill="#164A82" opacity="1.000000" stroke="none" 
	d="
M132.995789,146.987717 
	C134.837875,150.063889 133.994354,152.039688 130.230743,152.596161 
	C130.550400,150.816864 131.191849,149.392303 131.833282,147.967758 
	C131.833282,147.967758 132.092529,147.693726 132.335358,147.440887 
	C132.578186,147.188049 132.995789,146.987717 132.995789,146.987717 
z"/>
<path fill="#F7F8F9" opacity="1.000000" stroke="none" 
	d="
M579.676758,171.002518 
	C577.823120,172.541382 575.585449,174.075912 573.151245,175.367966 
	C575.067383,173.749725 577.180054,172.373962 579.676758,171.002518 
z"/>
<path fill="#164A82" opacity="1.000000" stroke="none" 
	d="
M204.248718,160.362366 
	C203.924316,157.583282 203.577103,154.367935 203.597290,151.094788 
	C204.051758,154.000015 204.138840,156.963074 204.248718,160.362366 
z"/>
<path fill="#164A82" opacity="1.000000" stroke="none" 
	d="
M125.016426,166.469513 
	C124.069061,166.899460 123.117027,166.899460 121.665108,166.899460 
	C122.588486,165.224838 123.275230,163.979385 123.996521,162.371155 
	C124.031075,162.008392 124.397827,161.836258 124.593399,161.784241 
	C124.863235,163.167984 124.937500,164.603775 125.016426,166.469513 
z"/>
<path fill="#DEF0F9" opacity="1.000000" stroke="none" 
	d="
M131.451630,147.988312 
	C131.191849,149.392303 130.550400,150.816864 129.845093,152.574295 
	C129.781235,152.907181 129.409363,152.981354 129.222992,153.016052 
	C129.714417,151.370117 130.392197,149.689499 131.451630,147.988312 
z"/>
<path fill="#F7F8F9" opacity="1.000000" stroke="none" 
	d="
M611.662964,140.963074 
	C612.129028,141.638397 612.333069,142.501617 612.537109,143.364838 
	C611.944275,143.448532 611.351440,143.532242 610.758606,143.615936 
	C610.972717,142.794281 611.186829,141.972626 611.662964,140.963074 
z"/>
<path fill="#DEF0F9" opacity="1.000000" stroke="none" 
	d="
M228.337067,129.912277 
	C227.832962,128.934280 227.736038,127.891777 227.679657,126.532684 
	C230.942902,126.614166 230.433029,128.064758 228.337067,129.912277 
z"/>
<path fill="#164A82" opacity="1.000000" stroke="none" 
	d="
M125.090469,160.340744 
	C125.583031,159.432861 126.029610,158.826355 126.717743,158.060349 
	C126.475670,159.211624 125.992058,160.522430 125.122116,161.823425 
	C124.838692,161.423141 124.941597,161.032639 125.090469,160.340744 
z"/>
<path fill="#F7F8F9" opacity="1.000000" stroke="none" 
	d="
M631.685425,132.923508 
	C631.165894,133.300171 630.405396,133.533478 629.644836,133.766769 
	C629.600586,133.359009 629.556335,132.951263 629.512085,132.543503 
	C630.156189,132.622391 630.800354,132.701263 631.685425,132.923508 
z"/>
<path fill="#EA8F8A" opacity="1.000000" stroke="none" 
	d="
M614.699707,167.705704 
	C615.466187,167.697113 615.938354,167.779205 616.744507,167.994568 
	C615.894409,168.383438 614.710327,168.639053 613.174438,168.746399 
	C613.350220,168.330872 613.877808,168.063629 614.699707,167.705704 
z"/>
<path fill="#F7F8F9" opacity="1.000000" stroke="none" 
	d="
M718.138733,98.097672 
	C718.553040,97.742325 718.909180,97.637688 719.265381,97.533043 
	C719.092529,98.053474 718.919739,98.573914 718.746887,99.094353 
	C718.524780,98.845703 718.302734,98.597046 718.138733,98.097672 
z"/>
<path fill="#F7F8F9" opacity="1.000000" stroke="none" 
	d="
M725.019043,95.027893 
	C724.574219,95.825386 724.103394,96.591537 723.632507,97.357689 
	C723.414917,97.210716 723.197388,97.063751 722.979797,96.916779 
	C723.434082,96.294670 723.888306,95.672554 724.639526,94.994247 
	C724.936462,94.938057 724.993042,94.996552 725.019043,95.027893 
z"/>
<path fill="#205389" opacity="1.000000" stroke="none" 
	d="
M283.309906,158.314529 
	C282.714600,158.139740 282.024567,157.702957 281.481506,156.904617 
	C282.157410,157.046204 282.686279,157.549377 283.309906,158.314529 
z"/>
<path fill="#D91722" opacity="1.000000" stroke="none" 
	d="
M663.388794,153.100922 
	C663.806580,152.975830 664.409058,152.952530 665.311157,152.932236 
	C664.931641,153.024399 664.252563,153.113541 663.388794,153.100922 
z"/>
<path fill="#205389" opacity="1.000000" stroke="none" 
	d="
M290.239929,135.752441 
	C289.833984,135.438416 289.478271,134.864487 289.197021,134.017426 
	C289.611053,134.327026 289.950592,134.909790 290.239929,135.752441 
z"/>
<path fill="#EA8F8A" opacity="1.000000" stroke="none" 
	d="
M572.308350,183.038330 
	C572.445496,182.619354 572.891907,182.235397 573.640991,181.898254 
	C573.501587,182.321167 573.059570,182.697250 572.308350,183.038330 
z"/>
<path fill="#F7F8F9" opacity="1.000000" stroke="none" 
	d="
M721.391602,96.707550 
	C721.561157,96.840538 721.586731,97.072151 721.612305,97.303772 
	C721.490723,97.137909 721.369141,96.972038 721.391602,96.707550 
z"/>
<path fill="#EA8F8A" opacity="1.000000" stroke="none" 
	d="
M699.106934,137.750427 
	C699.089355,137.294083 699.364380,136.815903 699.929077,136.307098 
	C699.945618,136.760513 699.672546,137.244553 699.106934,137.750427 
z"/>
<path fill="#BF1218" opacity="1.000000" stroke="none" 
	d="
M686.267090,147.016571 
	C685.914612,146.777176 685.821594,146.527786 685.728638,146.278412 
	C686.030029,146.308487 686.331482,146.338547 686.778687,146.520630 
	C686.791809,146.783966 686.659241,146.895294 686.267090,147.016571 
z"/>
<path fill="#DEF0F9" opacity="1.000000" stroke="none" 
	d="
M132.990067,146.738358 
	C132.995789,146.987717 132.578186,147.188049 132.355911,147.253403 
	C132.241257,146.978775 132.348862,146.638794 132.686371,146.146820 
	C132.916275,145.994843 132.984344,146.488998 132.990067,146.738358 
z"/>
<path fill="#DEF0F9" opacity="1.000000" stroke="none" 
	d="
M181.947510,161.810089 
	C181.647263,161.963379 181.410675,161.773239 181.257355,161.232483 
	C181.564529,161.085480 181.788055,161.280426 181.947510,161.810089 
z"/>
<path fill="#F7F8F9" opacity="1.000000" stroke="none" 
	d="
M594.883667,160.139542 
	C594.921448,160.335754 594.718506,160.600174 594.262512,160.910034 
	C594.124573,160.624832 594.335693,160.375595 594.883667,160.139542 
z"/>
<path fill="#DEF0F9" opacity="1.000000" stroke="none" 
	d="
M161.902664,128.853058 
	C161.680557,128.893524 161.419479,128.697556 161.160965,128.247421 
	C161.484665,128.102478 161.718048,128.310272 161.902664,128.853058 
z"/>
<path fill="#F7F8F9" opacity="1.000000" stroke="none" 
	d="
M715.980835,98.973145 
	C716.084229,98.933083 716.208496,98.916840 716.191040,98.969620 
	C716.049316,99.038643 716.001648,98.996956 715.980835,98.973145 
z"/>
<path fill="#DEF0F9" opacity="1.000000" stroke="none" 
	d="
M140.089905,149.777390 
	C142.273911,145.113663 144.457916,140.449936 147.153748,134.693237 
	C150.196274,140.316208 152.587204,144.734955 154.511185,149.461212 
	C152.365631,149.826767 150.687027,149.884796 149.008423,149.942825 
	C147.935318,149.876129 146.862198,149.809418 144.997726,149.748749 
	C142.834213,149.762329 141.462051,149.769867 140.089905,149.777390 
z"/>
<path fill="#164A82" opacity="1.000000" stroke="none" 
	d="
M149.041107,150.320465 
	C150.687027,149.884796 152.365631,149.826767 154.459518,149.819168 
	C154.953522,151.564850 153.147156,153.952744 156.758820,154.677582 
	C150.629471,154.976181 144.290558,155.024139 137.489273,155.011078 
	C140.356277,154.632950 143.682678,154.109604 147.015915,154.061432 
	C149.880463,154.020004 149.879425,152.728882 149.041107,150.320465 
z"/>
<path fill="#164A82" opacity="1.000000" stroke="none" 
	d="
M140.261963,150.092331 
	C141.462051,149.769867 142.834213,149.762329 144.606567,149.856903 
	C143.482513,150.108429 141.958267,150.257858 140.261963,150.092331 
z"/>
<path fill="#164A82" opacity="1.000000" stroke="none" 
	d="
M130.486725,165.023895 
	C129.770142,165.669022 128.746689,166.350540 127.382767,166.938202 
	C128.088135,166.249664 129.133987,165.654968 130.486725,165.023895 
z"/>
<path fill="#164A82" opacity="1.000000" stroke="none" 
	d="
M127.527824,156.932159 
	C127.579262,156.301865 127.969452,155.593033 128.612991,154.692520 
	C128.533081,155.285095 128.199829,156.069366 127.527824,156.932159 
z"/>
<path fill="#164A82" opacity="1.000000" stroke="none" 
	d="
M132.957855,161.626312 
	C132.942719,161.947311 132.521057,162.106979 132.309113,162.183731 
	C132.255112,161.629868 132.413071,160.999268 132.861801,160.200867 
	C133.092712,160.457169 133.032852,160.881241 132.957855,161.626312 
z"/>
<path fill="#164A82" opacity="1.000000" stroke="none" 
	d="
M136.038422,155.229538 
	C136.077057,155.663452 135.804291,156.193802 135.285522,156.897736 
	C135.268661,156.489532 135.497818,155.907761 136.038422,155.229538 
z"/>
<path fill="#164A82" opacity="1.000000" stroke="none" 
	d="
M134.804108,157.166031 
	C134.871368,157.563477 134.675110,158.109512 134.235260,158.825806 
	C134.174652,158.435577 134.357620,157.875092 134.804108,157.166031 
z"/>
<path fill="#164A82" opacity="1.000000" stroke="none" 
	d="
M131.624969,163.180588 
	C131.731628,163.348862 131.640411,163.673111 131.326416,164.135315 
	C131.211456,163.961029 131.319275,163.648788 131.624969,163.180588 
z"/>
<path fill="#F6FBFC" opacity="1.000000" stroke="none" 
	d="
M337.151794,161.720123 
	C335.694672,162.256088 334.417023,162.612061 333.117249,162.844086 
	C325.417114,164.218552 319.155457,161.732452 315.750946,155.982635 
	C312.170197,149.935303 312.930206,139.916016 317.355591,134.828140 
	C321.453766,130.116409 329.182037,128.507355 335.770294,130.994125 
	C346.634521,135.094879 348.523071,151.024063 339.087280,160.551514 
	C338.397491,161.063110 337.859253,161.272980 337.151794,161.720123 
z"/>
<path fill="#205389" opacity="1.000000" stroke="none" 
	d="
M480.954651,162.045593 
	C475.419830,161.440140 471.216370,157.527939 471.267548,151.069321 
	C471.313538,145.266953 472.788513,139.354706 474.448547,133.731628 
	C475.448517,130.344437 486.772583,127.340889 491.606232,128.347046 
	C494.484314,128.946136 497.422302,129.259003 500.297211,129.870544 
	C501.043854,130.029358 501.801239,130.710693 502.305542,131.348297 
	C508.426514,139.087189 508.719360,151.724091 502.731628,159.276093 
	C501.656158,160.632568 499.524292,161.151443 497.512207,162.108231 
	C497.144226,162.159424 497.012909,162.007797 497.141052,161.656372 
	C501.705811,158.887207 504.092285,154.956940 504.707001,150.138840 
	C505.612762,143.039429 504.635040,136.258698 497.871338,132.216782 
	C492.043915,128.734390 485.696381,128.692398 479.970551,132.502274 
	C473.479095,136.821548 472.625153,143.448395 473.630402,150.627640 
	C474.332184,155.639832 477.329620,158.973526 481.185089,161.786682 
	C481.185089,161.786682 481.031555,161.959366 480.954651,162.045593 
z"/>
<path fill="#164A82" opacity="1.000000" stroke="none" 
	d="
M204.153381,149.176514 
	C204.057388,149.069839 203.912277,148.881577 203.767166,148.693314 
	C203.869431,148.756348 203.971695,148.819397 204.169861,149.039139 
	C204.265778,149.195847 204.104248,149.094955 204.153381,149.176514 
z"/>
<path fill="#215698" opacity="1.000000" stroke="none" 
	d="
M661.940918,124.410248 
	C663.548767,123.636230 665.081604,123.192558 666.860474,122.513657 
	C676.763611,121.519028 686.420715,120.759628 696.543579,119.935188 
	C697.744019,119.927788 698.478760,119.985428 699.351257,120.336327 
	C696.705994,123.306465 693.846375,125.909454 691.166016,128.685471 
	C689.297546,130.620544 687.674866,132.792892 685.942383,134.859238 
	C677.761719,135.631683 669.576538,136.360947 661.403198,137.204468 
	C659.133301,137.438751 656.898438,138.011841 654.403259,138.694885 
	C653.939148,138.955139 653.719177,138.949982 652.964722,138.933960 
	C652.261475,138.834442 652.092773,138.745819 651.924194,138.657211 
	C655.238098,134.018341 658.552002,129.379471 661.940918,124.410248 
z"/>
<path fill="#205389" opacity="1.000000" stroke="none" 
	d="
M637.095032,142.192535 
	C640.812012,141.445786 644.529053,140.699036 648.660645,140.060913 
	C646.339783,144.008438 644.125854,148.435135 640.689758,151.484573 
	C638.302734,153.602921 634.234985,153.827301 630.536682,154.488327 
	C632.497742,151.476730 634.708374,148.737213 637.228394,146.320190 
	C638.950317,144.668655 639.105164,143.509979 637.095032,142.192535 
z"/>
<path fill="#4668A6" opacity="1.000000" stroke="none" 
	d="
M636.723999,142.160034 
	C639.105164,143.509979 638.950317,144.668655 637.228394,146.320190 
	C634.708374,148.737213 632.497742,151.476730 630.124878,154.402527 
	C627.745422,155.330475 625.396423,155.934738 622.650757,156.552612 
	C623.520386,154.602707 624.694336,152.571198 626.077393,150.693802 
	C627.603088,148.622910 629.320679,146.693390 631.084045,144.148590 
	C631.213440,143.594925 631.396912,143.183426 631.396912,143.183426 
	C631.396912,143.183426 631.726685,143.231659 631.869995,143.146576 
	C633.459900,142.750183 634.906372,142.438858 636.723999,142.160034 
z"/>
<path fill="#BF1218" opacity="1.000000" stroke="none" 
	d="
M631.631836,158.900208 
	C631.933044,156.597244 632.981689,156.442886 637.405273,158.726456 
	C635.608765,158.805084 633.812317,158.883713 631.631836,158.900208 
z"/>
<path fill="#BF1218" opacity="1.000000" stroke="none" 
	d="
M651.072754,140.194702 
	C650.928955,140.037460 651.019592,139.732498 651.166199,139.686523 
	C651.421509,139.878067 651.530212,140.115570 651.638916,140.353058 
	C651.498108,140.352692 651.357361,140.352310 651.072754,140.194702 
z"/>
<path fill="#BF1218" opacity="1.000000" stroke="none" 
	d="
M651.749512,138.768234 
	C652.092773,138.745819 652.261475,138.834442 652.668762,139.079880 
	C652.593262,139.381500 652.279053,139.526337 651.748413,139.481064 
	C651.531982,139.290955 651.574829,138.879272 651.749512,138.768234 
z"/>
<path fill="#F6FBFC" opacity="1.000000" stroke="none" 
	d="
M481.590820,161.838776 
	C477.329620,158.973526 474.332184,155.639832 473.630402,150.627640 
	C472.625153,143.448395 473.479095,136.821548 479.970551,132.502274 
	C485.696381,128.692398 492.043915,128.734390 497.871338,132.216782 
	C504.635040,136.258698 505.612762,143.039429 504.707001,150.138840 
	C504.092285,154.956940 501.705811,158.887207 497.075317,161.580643 
	C491.919830,161.867844 486.958191,161.879349 481.590820,161.838776 
z"/>
<path fill="#4668A6" opacity="1.000000" stroke="none" 
	d="
M686.346191,134.951752 
	C687.674866,132.792892 689.297546,130.620544 691.166016,128.685471 
	C693.846375,125.909454 696.705994,123.306465 699.717285,120.386337 
	C701.287659,119.657875 702.629700,119.172661 704.337280,118.675385 
	C703.964233,120.382774 703.373779,122.186752 702.451843,123.801460 
	C701.143555,126.092766 699.591187,128.244736 698.250122,130.827454 
	C698.357056,131.198669 698.249390,131.308716 697.870605,131.236649 
	C697.133118,131.548035 696.774414,131.931488 696.415771,132.314941 
	C696.415771,132.314957 696.431946,132.623672 696.482666,132.770142 
	C695.837830,133.043304 695.142212,133.169998 693.851013,133.339050 
	C693.255371,133.381409 692.869019,133.475906 692.869019,133.475906 
	C692.869019,133.475906 692.922546,133.779907 692.922546,133.779907 
	C692.192932,134.087677 691.463318,134.395447 690.392212,134.902252 
	C688.950439,135.082275 687.850220,135.063278 686.346191,134.951752 
z"/>
<path fill="#DEF0F9" opacity="1.000000" stroke="none" 
	d="
M631.059937,143.134598 
	C631.396912,143.183426 631.213440,143.594925 631.104858,143.792267 
	C630.555237,143.986465 630.114136,143.983337 629.341919,143.963867 
	C629.581421,143.660263 630.152222,143.373016 631.059937,143.134598 
z"/>
<path fill="#FEFFFF" opacity="1.000000" stroke="none" 
	d="
M716.000000,107.000153 
	C714.339844,111.318909 712.126526,114.689766 706.173340,112.271400 
	C708.248047,108.686722 711.082825,106.841072 715.598511,106.999374 
	C716.000000,106.999695 716.000000,107.000000 716.000000,107.000153 
z"/>
<path fill="#FEFFFF" opacity="1.000000" stroke="none" 
	d="
M669.290222,118.890457 
	C669.205750,118.592003 669.298279,118.196114 669.513611,118.110931 
	C669.689087,118.041527 670.011658,118.343811 670.268982,118.481277 
	C670.019409,118.629959 669.769836,118.778648 669.290222,118.890457 
z"/>
<path fill="#FEFFFF" opacity="1.000000" stroke="none" 
	d="
M686.457825,105.465668 
	C686.517883,105.433876 686.397766,105.497459 686.457825,105.465668 
z"/>
<path fill="#EA8F8A" opacity="1.000000" stroke="none" 
	d="
M692.996948,133.793945 
	C692.922546,133.779907 692.869019,133.475906 692.869019,133.475906 
	C692.869019,133.475906 693.255371,133.381409 693.343201,133.485886 
	C693.431030,133.590363 693.071289,133.807983 692.996948,133.793945 
z"/>
<path fill="#F7F8F9" opacity="1.000000" stroke="none" 
	d="
M658.534119,125.565964 
	C658.473694,125.602264 658.594543,125.529663 658.534119,125.565964 
z"/>
<path fill="#7585BA" opacity="1.000000" stroke="none" 
	d="
M696.669922,132.282257 
	C696.774414,131.931488 697.133118,131.548035 697.796143,131.256088 
	C697.708252,131.648254 697.316101,131.948929 696.669922,132.282257 
z"/>
</svg>