<svg width="200" height="50" viewBox="0 0 200 50" fill="none" xmlns="http://www.w3.org/2000/svg">
<path fill-rule="evenodd" clip-rule="evenodd" d="M184.555 9C181.497 11.9591 178.193 12.3536 175.185 12.6989L173.705 12.8961C172.077 13.0441 170.746 13.1427 169.217 14.1291C167.688 15.0168 165.913 16.9896 164.68 18.4691C159.945 19.2582 155.95 20.7377 152.597 22.5625C146.679 25.7682 142.536 30.0589 139.478 33.2646L136.47 36.6675L137.012 36.5196C142.487 31.5878 147.665 27.9875 152.597 25.8668C155.655 24.4859 158.663 23.6475 161.573 23.3516H161.671L164.828 19.3568C165.617 18.6171 166.85 18.3211 168.625 18.1732L171.782 17.9759L174.445 17.828L175.333 17.7293C177.453 17.4334 179.179 16.9896 181.695 13.7346L184.999 9.29591L184.555 9ZM162.411 21.4775C162.411 21.4775 161.523 22.6612 161.375 22.8091C158.564 23.2037 155.655 23.9927 152.646 25.275C148.849 26.9518 145.002 29.3191 140.958 32.5741C143.769 29.615 147.517 25.9655 152.646 23.2037C155.852 21.4282 159.748 19.9487 164.335 19.1596C163.989 19.4061 162.411 21.4775 162.411 21.4775ZM181.201 13.4386C178.883 16.5457 177.256 16.9896 175.234 17.2361L174.445 17.2855L171.732 17.4334L168.576 17.68C167.294 17.828 166.307 18.0252 165.518 18.5184C166.603 17.2855 168.181 15.4114 169.562 14.5236C171.042 13.6359 172.719 13.5866 173.754 13.3893L174.395 13.34H174.494L175.382 13.2907C177.897 12.9948 180.708 12.5509 183.47 10.6275C182.385 11.8605 181.201 13.4386 181.201 13.4386Z" fill="black"/>
<path fill-rule="evenodd" clip-rule="evenodd" d="M136.815 36.3717C146.383 29.5658 151.512 26.9026 162.855 26.7546L160.438 30.0096C159.945 30.8974 159.205 30.8974 158.515 30.7987C150.378 30.7494 144.706 31.3412 134.892 38.2951L136.815 36.3717Z" fill="url(#paint0_linear_15_535)"/>
<path fill-rule="evenodd" clip-rule="evenodd" d="M137.358 35.829C137.308 35.829 137.308 35.829 137.358 35.829C146.728 27.5929 154.668 23.894 161.573 23.1049C162.214 22.3651 164.335 19.6033 164.976 18.7156C149.391 21.1815 142.24 31.1438 137.358 35.829Z" fill="url(#paint1_linear_15_535)"/>
<path fill-rule="evenodd" clip-rule="evenodd" d="M137.308 35.8291C137.16 35.9277 136.864 36.3223 136.568 36.5689C136.47 36.6675 136.322 36.8648 136.322 36.8648C138.147 35.4839 141.845 32.7714 145.199 30.9959C148.553 29.2204 152.646 27.7902 158.466 27.0011C159.008 26.4093 160.784 24.19 161.573 23.0063C150.821 24.5352 143.769 30.3054 137.308 35.8291Z" fill="url(#paint2_linear_15_535)"/>
<path fill-rule="evenodd" clip-rule="evenodd" d="M160.192 30.3548C160.291 30.0095 160.537 29.7136 159.403 29.0232C157.923 28.1848 157.48 28.5793 157.776 27.7409C158.022 27.0505 161.031 25.8668 163.25 26.6066C163.25 26.6559 161.277 28.8259 160.192 30.3548Z" fill="url(#paint3_linear_15_535)"/>
<path fill-rule="evenodd" clip-rule="evenodd" d="M168.675 17.7294C166.406 17.976 165.025 18.5185 164.137 19.6035L161.129 23.5983C161.869 23.0065 163.841 22.6612 166.011 22.6612H166.307C166.406 22.6612 166.455 22.6612 166.554 22.6612C166.899 22.6612 167.195 22.5626 167.54 22.5626C170.697 22.5133 174.938 22.0694 177.552 19.1596L181.3 14.1785L181.695 13.636C178.39 17.7787 171.042 17.3349 168.675 17.7294Z" fill="url(#paint4_linear_15_535)"/>
<path fill-rule="evenodd" clip-rule="evenodd" d="M174.297 13.0441C173.31 13.192 171.14 13.1427 169.365 14.2277C167.491 15.3621 165.272 18.0252 164.187 19.4555C165.173 18.4198 166.603 18.0746 168.527 17.828C170.45 17.6307 173.212 17.68 175.234 17.3841C177.157 17.1868 178.933 16.7923 181.349 13.5373L184.752 9.09863C181.349 12.4523 177.552 12.6002 174.297 13.0441Z" fill="url(#paint5_linear_15_535)"/>
<path fill-rule="evenodd" clip-rule="evenodd" d="M170.45 22.1681C168.132 22.464 165.42 22.5626 164.631 22.6119C163.348 22.6119 161.573 23.0558 161.08 23.6476C159.551 25.4231 158.17 27.0506 157.775 27.7904C158.663 26.952 161.672 27.0506 165.272 26.9026C168.921 26.7547 172.522 25.1765 175.431 22.0201L177.651 19.061C176.22 20.8858 173.607 21.7242 170.45 22.1681Z" fill="url(#paint6_linear_15_535)"/>
<path fill-rule="evenodd" clip-rule="evenodd" d="M109.641 20.9845C111.613 19.5542 114.622 19.061 116.743 19.061C118.863 19.061 121.872 19.5542 123.894 20.9845C125.472 22.0694 126.212 23.697 126.212 25.0778C126.212 26.4588 125.472 28.0369 123.894 29.1713C121.872 30.5522 118.863 31.0454 116.743 31.0454C114.622 31.0454 111.663 30.6015 109.641 29.1713C108.063 28.0369 107.323 26.4588 107.323 25.0778C107.323 23.697 108.063 22.1187 109.641 20.9845ZM113.29 28.2342C114.277 29.4672 115.608 29.7138 116.743 29.7138C117.877 29.7138 119.208 29.4672 120.195 28.2342C121.033 27.2479 121.181 26.1136 121.181 25.1272C121.181 24.0915 121.033 22.9572 120.195 21.9708C119.208 20.6886 117.877 20.442 116.743 20.442C115.608 20.442 114.277 20.7379 113.29 21.9708C112.501 22.9572 112.353 24.0915 112.353 25.1272C112.353 26.0642 112.452 27.2479 113.29 28.2342ZM44.6886 29.0233V30.7987H33.2961V19.4062H44.3434V21.1324H37.8334V24.0915H43.9981V25.7683H37.8334V29.0233H44.6886ZM51.3466 21.1324V30.7987H46.76V19.4062H55.292C57.0182 19.4062 58.843 19.4062 60.2239 20.1953C61.3582 20.8365 61.8514 21.8722 61.8514 22.8092C61.8514 23.5983 61.3582 24.5353 60.4705 25.1271C59.7307 25.6203 58.4977 25.9162 57.7086 26.0149L61.9993 30.7494H56.7223L52.185 25.0778L52.7275 25.1271C53.7138 25.2751 55.292 25.1764 56.1798 24.5847C56.8702 24.1408 57.0675 23.6476 57.0675 23.1051C57.0675 22.4639 56.7716 21.9708 56.2784 21.6256C55.588 21.1817 54.7989 21.1324 54.0098 21.1324H51.3466ZM88.0887 30.7987V25.9656H94.2041V24.2395H88.0887V21.1324H94.6973V19.4062H83.5514V30.7987H88.0887ZM96.3741 19.4062H100.911V29.0233H107.619V30.7987H96.3741V19.4062ZM126.409 21.1324H131.341V30.7987H135.878V21.1324H140.81V19.4062H126.409V21.1324ZM72.5041 19.061C70.3834 19.061 67.375 19.5542 65.4023 20.9845C63.8241 22.1187 63.0843 23.697 63.0843 25.0778C63.0843 26.4588 63.8241 28.0369 65.4023 29.1713C67.4243 30.6015 70.3834 31.0454 72.5041 31.0454C74.6248 31.0454 77.6332 30.5522 79.6552 29.1713C81.2334 28.0369 81.9732 26.4588 81.9732 25.0778C81.9732 23.697 81.2334 22.0694 79.6552 20.9845C77.6332 19.5542 74.6248 19.061 72.5041 19.061ZM72.5041 29.7138C71.3698 29.7138 70.0382 29.4672 69.0518 28.2342C68.2134 27.2479 68.0654 26.0642 68.0654 25.1272C68.0654 24.0915 68.2134 22.9572 69.0518 21.9708C70.0382 20.7379 71.3698 20.442 72.5041 20.442C73.6384 20.442 74.97 20.6886 75.9564 21.9708C76.7948 22.9572 76.8934 24.0915 76.8934 25.1272C76.8934 26.1136 76.7455 27.2479 75.9564 28.2342C74.97 29.4672 73.6384 29.7138 72.5041 29.7138ZM19.0431 27.4944L17.2677 30.7987H14.999L21.2624 19.4062H25.5038L32.4084 30.7987H27.2793L25.3559 27.4944H19.0431ZM22.0515 21.9708L19.8815 25.9162H24.4188L22.1009 21.9708H22.0515Z" fill="#01529B"/>
<defs>
<linearGradient id="paint0_linear_15_535" x1="141.28" y1="25.02" x2="153.36" y2="36.9461" gradientUnits="userSpaceOnUse">
<stop stop-color="#C00318"/>
<stop offset="0.3" stop-color="#E2001A"/>
<stop offset="0.3292" stop-color="#E42323"/>
<stop offset="0.3882" stop-color="#E8513F"/>
<stop offset="0.4709" stop-color="#EF8A7E"/>
<stop offset="0.5292" stop-color="#F5B3B3"/>
<stop offset="0.553" stop-color="#F19990"/>
<stop offset="0.5885" stop-color="#EC7564"/>
<stop offset="0.6237" stop-color="#E85644"/>
<stop offset="0.6577" stop-color="#E53C2F"/>
<stop offset="0.6903" stop-color="#E42323"/>
<stop offset="0.7209" stop-color="#E3051C"/>
<stop offset="0.7475" stop-color="#E2001A"/>
<stop offset="1" stop-color="#C00318"/>
</linearGradient>
<linearGradient id="paint1_linear_15_535" x1="136.119" y1="16.349" x2="166.309" y2="38.283" gradientUnits="userSpaceOnUse">
<stop stop-color="white"/>
<stop offset="0.34" stop-color="white"/>
<stop offset="0.54" stop-color="white"/>
<stop offset="0.91" stop-color="#D3DBED"/>
<stop offset="1" stop-color="#D3DBED"/>
</linearGradient>
<linearGradient id="paint2_linear_15_535" x1="141.508" y1="22.6389" x2="158.13" y2="39.0474" gradientUnits="userSpaceOnUse">
<stop stop-color="#004B93"/>
<stop offset="0.1296" stop-color="#004B93"/>
<stop offset="0.1708" stop-color="#00559A"/>
<stop offset="0.3067" stop-color="#5378B3"/>
<stop offset="0.4079" stop-color="#7A92C5"/>
<stop offset="0.4622" stop-color="#889DCC"/>
<stop offset="0.4697" stop-color="#8198C9"/>
<stop offset="0.5489" stop-color="#3A6AA9"/>
<stop offset="0.6069" stop-color="#005399"/>
<stop offset="0.6371" stop-color="#004B93"/>
<stop offset="0.9166" stop-color="#004B93"/>
</linearGradient>
<linearGradient id="paint3_linear_15_535" x1="157.527" y1="25.7897" x2="163.934" y2="29.9508" gradientUnits="userSpaceOnUse">
<stop stop-color="#C00318"/>
<stop offset="0.5" stop-color="#E2001A"/>
<stop offset="1" stop-color="#F5B3B3"/>
</linearGradient>
<linearGradient id="paint4_linear_15_535" x1="162.839" y1="11.4783" x2="180.5" y2="26.1615" gradientUnits="userSpaceOnUse">
<stop stop-color="#D4DEEF"/>
<stop offset="0.0730286" stop-color="#D4DEEF"/>
<stop offset="0.1174" stop-color="#BCC9E3"/>
<stop offset="0.2114" stop-color="#7E96C5"/>
<stop offset="0.3463" stop-color="#00559A"/>
<stop offset="0.3708" stop-color="#004B93"/>
<stop offset="0.4288" stop-color="#004F96"/>
<stop offset="0.5195" stop-color="#0F5B9E"/>
<stop offset="0.6316" stop-color="#4972AD"/>
<stop offset="0.7606" stop-color="#7E96C5"/>
<stop offset="0.9024" stop-color="#BDCAE4"/>
<stop offset="0.9494" stop-color="#D4DEEF"/>
<stop offset="1" stop-color="#D4DEEF"/>
</linearGradient>
<linearGradient id="paint5_linear_15_535" x1="166.394" y1="7.54713" x2="183.169" y2="21.4939" gradientUnits="userSpaceOnUse">
<stop stop-color="white"/>
<stop offset="0.1742" stop-color="white"/>
<stop offset="0.2463" stop-color="#FAFBFD"/>
<stop offset="0.3435" stop-color="#EBEEF7"/>
<stop offset="0.3865" stop-color="#E3E7F3"/>
<stop offset="0.4746" stop-color="#F0F2F9"/>
<stop offset="0.5941" stop-color="#FBFCFD"/>
<stop offset="0.7" stop-color="white"/>
<stop offset="1" stop-color="white"/>
</linearGradient>
<linearGradient id="paint6_linear_15_535" x1="160.009" y1="17.0028" x2="175.055" y2="29.512" gradientUnits="userSpaceOnUse">
<stop stop-color="#F5B3B3"/>
<stop offset="0.0561829" stop-color="#F5B3B3"/>
<stop offset="0.071738" stop-color="#F3A5A1"/>
<stop offset="0.1265" stop-color="#EC7867"/>
<stop offset="0.1763" stop-color="#E85240"/>
<stop offset="0.2193" stop-color="#E53229"/>
<stop offset="0.2541" stop-color="#E3101E"/>
<stop offset="0.2761" stop-color="#E2001A"/>
<stop offset="0.294" stop-color="#DF001A"/>
<stop offset="0.4383" stop-color="#C90019"/>
<stop offset="0.5169" stop-color="#C00318"/>
<stop offset="0.574" stop-color="#C90019"/>
<stop offset="0.6789" stop-color="#DF001A"/>
<stop offset="0.6919" stop-color="#E2001A"/>
<stop offset="0.8914" stop-color="#F3A9A6"/>
<stop offset="1" stop-color="#F5B3B3"/>
</linearGradient>
</defs>
</svg>
