<svg width="170" height="30" viewBox="0 0 170 30" fill="none" xmlns="http://www.w3.org/2000/svg">
<g clip-path="url(#clip0_401_1115)">
<path fill-rule="evenodd" clip-rule="evenodd" d="M169.556 0C166.498 2.95909 163.194 3.35364 160.186 3.69887L158.706 3.89614C157.078 4.0441 155.747 4.14273 154.218 5.1291C152.689 6.01683 150.914 7.98956 149.681 9.4691C144.946 10.2582 140.951 11.7377 137.598 13.5625C131.68 16.7682 127.537 21.0589 124.479 24.2646L121.471 27.6675L122.013 27.5196C127.488 22.5878 132.666 18.9875 137.598 16.8668C140.656 15.4859 143.664 14.6475 146.574 14.3516H146.672L149.829 10.3568C150.618 9.61706 151.851 9.32115 153.626 9.17319L156.783 8.97592L159.446 8.82796L160.333 8.72933C162.454 8.43342 164.18 7.98956 166.696 4.73455L170 0.295909L169.556 0ZM147.412 12.4775C147.412 12.4775 146.524 13.6612 146.376 13.8091C143.565 14.2037 140.656 14.9927 137.647 16.275C133.85 17.9518 130.003 20.3191 125.959 23.5741C128.77 20.615 132.518 16.9655 137.647 14.2037C140.853 12.4282 144.749 10.9487 149.336 10.1596C148.99 10.4061 147.412 12.4775 147.412 12.4775ZM166.202 4.43864C163.884 7.54569 162.257 7.98956 160.235 8.23615L159.446 8.28546L156.733 8.43342L153.577 8.68001C152.295 8.82797 151.308 9.02524 150.519 9.51842C151.604 8.28546 153.182 6.41137 154.563 5.52364C156.043 4.63591 157.72 4.5866 158.755 4.38932L159.396 4.34001H159.495L160.383 4.29069C162.898 3.99478 165.709 3.55091 168.471 1.6275C167.386 2.86046 166.202 4.43864 166.202 4.43864Z" fill="black"/>
<path fill-rule="evenodd" clip-rule="evenodd" d="M121.816 27.3717C131.384 20.5658 136.513 17.9026 147.856 17.7546L145.439 21.0096C144.946 21.8974 144.206 21.8974 143.516 21.7987C135.379 21.7494 129.707 22.3412 119.893 29.2951L121.816 27.3717Z" fill="url(#paint0_linear_401_1115)"/>
<path fill-rule="evenodd" clip-rule="evenodd" d="M122.359 26.829C122.309 26.829 122.309 26.829 122.359 26.829C131.729 18.5929 139.669 14.894 146.574 14.1049C147.215 13.3651 149.336 10.6033 149.977 9.71558C134.392 12.1815 127.241 22.1438 122.359 26.829Z" fill="url(#paint1_linear_401_1115)"/>
<path fill-rule="evenodd" clip-rule="evenodd" d="M122.309 26.8291C122.161 26.9277 121.865 27.3223 121.569 27.5689C121.471 27.6675 121.323 27.8648 121.323 27.8648C123.148 26.4839 126.846 23.7714 130.2 21.9959C133.554 20.2204 137.647 18.7902 143.467 18.0011C144.009 17.4093 145.785 15.19 146.574 14.0063C135.822 15.5352 128.77 21.3054 122.309 26.8291Z" fill="url(#paint2_linear_401_1115)"/>
<path fill-rule="evenodd" clip-rule="evenodd" d="M145.193 21.3548C145.292 21.0095 145.538 20.7136 144.404 20.0232C142.924 19.1848 142.481 19.5793 142.776 18.7409C143.023 18.0505 146.031 16.8668 148.251 17.6066C148.251 17.6559 146.278 19.8259 145.193 21.3548Z" fill="url(#paint3_linear_401_1115)"/>
<path fill-rule="evenodd" clip-rule="evenodd" d="M153.676 8.7294C151.407 8.97599 150.026 9.51849 149.138 10.6035L146.13 14.5983C146.87 14.0065 148.842 13.6612 151.012 13.6612H151.308C151.407 13.6612 151.456 13.6612 151.555 13.6612C151.9 13.6612 152.196 13.5626 152.541 13.5626C155.698 13.5133 159.939 13.0694 162.553 10.1596L166.301 5.17849L166.696 4.63599C163.391 8.77872 156.043 8.33486 153.676 8.7294Z" fill="url(#paint4_linear_401_1115)"/>
<path fill-rule="evenodd" clip-rule="evenodd" d="M159.298 4.04409C158.311 4.19205 156.141 4.14273 154.366 5.22773C152.492 6.36205 150.273 9.02524 149.188 10.4555C150.174 9.41978 151.604 9.07455 153.527 8.82796C155.451 8.63069 158.213 8.68001 160.235 8.3841C162.158 8.18682 163.934 7.79228 166.35 4.53727L169.753 0.0986328C166.35 3.45227 162.553 3.60023 159.298 4.04409Z" fill="url(#paint5_linear_401_1115)"/>
<path fill-rule="evenodd" clip-rule="evenodd" d="M155.451 13.1681C153.133 13.464 150.421 13.5626 149.632 13.6119C148.349 13.6119 146.574 14.0558 146.081 14.6476C144.552 16.4231 143.171 18.0506 142.776 18.7904C143.664 17.952 146.673 18.0506 150.273 17.9026C153.922 17.7547 157.523 16.1765 160.432 13.0201L162.652 10.061C161.221 11.8858 158.608 12.7242 155.451 13.1681Z" fill="url(#paint6_linear_401_1115)"/>
<path fill-rule="evenodd" clip-rule="evenodd" d="M94.6417 11.9845C96.6145 10.5542 99.6229 10.061 101.744 10.061C103.864 10.061 106.873 10.5542 108.895 11.9845C110.473 13.0694 111.213 14.697 111.213 16.0778C111.213 17.4588 110.473 19.0369 108.895 20.1713C106.873 21.5522 103.864 22.0454 101.744 22.0454C99.6229 22.0454 96.6638 21.6015 94.6417 20.1713C93.0635 19.0369 92.3238 17.4588 92.3238 16.0778C92.3238 14.697 93.0635 13.1187 94.6417 11.9845ZM98.2913 19.2342C99.2776 20.4672 100.609 20.7138 101.744 20.7138C102.878 20.7138 104.209 20.4672 105.196 19.2342C106.034 18.2479 106.182 17.1136 106.182 16.1272C106.182 15.0915 106.034 13.9572 105.196 12.9708C104.209 11.6886 102.878 11.442 101.744 11.442C100.609 11.442 99.2776 11.7379 98.2913 12.9708C97.5022 13.9572 97.3542 15.0915 97.3542 16.1272C97.3542 17.0642 97.4529 18.2479 98.2913 19.2342ZM29.6896 20.0233V21.7987H18.2971V10.4062H29.3444V12.1324H22.8343V15.0915H28.9991V16.7683H22.8343V20.0233H29.6896ZM36.3476 12.1324V21.7987H31.761V10.4062H40.293C42.0192 10.4062 43.8439 10.4062 45.2248 11.1953C46.3592 11.8365 46.8523 12.8722 46.8523 13.8092C46.8523 14.5983 46.3592 15.5353 45.4714 16.1271C44.7317 16.6203 43.4987 16.9162 42.7096 17.0149L47.0003 21.7494H41.7233L37.186 16.0778L37.7285 16.1271C38.7148 16.2751 40.293 16.1764 41.1807 15.5847C41.8712 15.1408 42.0685 14.6476 42.0685 14.1051C42.0685 13.4639 41.7726 12.9708 41.2794 12.6256C40.5889 12.1817 39.7998 12.1324 39.0108 12.1324H36.3476ZM73.0897 21.7987V16.9656H79.2051V15.2395H73.0897V12.1324H79.6983V10.4062H68.5524V21.7987H73.0897ZM81.3751 10.4062H85.9124V20.0233H92.6197V21.7987H81.3751V10.4062ZM111.41 12.1324H116.342V21.7987H120.879V12.1324H125.811V10.4062H111.41V12.1324ZM57.5051 10.061C55.3844 10.061 52.376 10.5542 50.4033 11.9845C48.8251 13.1187 48.0853 14.697 48.0853 16.0778C48.0853 17.4588 48.8251 19.0369 50.4033 20.1713C52.4253 21.6015 55.3844 22.0454 57.5051 22.0454C59.6258 22.0454 62.6342 21.5522 64.6562 20.1713C66.2344 19.0369 66.9742 17.4588 66.9742 16.0778C66.9742 14.697 66.2344 13.0694 64.6562 11.9845C62.6342 10.5542 59.6258 10.061 57.5051 10.061ZM57.5051 20.7138C56.3708 20.7138 55.0392 20.4672 54.0528 19.2342C53.2144 18.2479 53.0664 17.0642 53.0664 16.1272C53.0664 15.0915 53.2144 13.9572 54.0528 12.9708C55.0392 11.7379 56.3708 11.442 57.5051 11.442C58.6394 11.442 59.971 11.6886 60.9573 12.9708C61.7958 13.9572 61.8944 15.0915 61.8944 16.1272C61.8944 17.1136 61.7465 18.2479 60.9573 19.2342C59.971 20.4672 58.6394 20.7138 57.5051 20.7138ZM4.0441 18.4944L2.26863 21.7987H0L6.26342 10.4062H10.5048L17.4093 21.7987H12.2803L10.3568 18.4944H4.0441ZM7.0525 12.9708L4.88252 16.9162H9.41977L7.10184 12.9708H7.0525Z" fill="#01529B"/>
</g>
<defs>
<linearGradient id="paint0_linear_401_1115" x1="126.281" y1="16.02" x2="138.361" y2="27.9461" gradientUnits="userSpaceOnUse">
<stop stop-color="#C00318"/>
<stop offset="0.3" stop-color="#E2001A"/>
<stop offset="0.3292" stop-color="#E42323"/>
<stop offset="0.3882" stop-color="#E8513F"/>
<stop offset="0.4709" stop-color="#EF8A7E"/>
<stop offset="0.5292" stop-color="#F5B3B3"/>
<stop offset="0.553" stop-color="#F19990"/>
<stop offset="0.5885" stop-color="#EC7564"/>
<stop offset="0.6237" stop-color="#E85644"/>
<stop offset="0.6577" stop-color="#E53C2F"/>
<stop offset="0.6903" stop-color="#E42323"/>
<stop offset="0.7209" stop-color="#E3051C"/>
<stop offset="0.7475" stop-color="#E2001A"/>
<stop offset="1" stop-color="#C00318"/>
</linearGradient>
<linearGradient id="paint1_linear_401_1115" x1="121.12" y1="7.34904" x2="151.31" y2="29.283" gradientUnits="userSpaceOnUse">
<stop stop-color="white"/>
<stop offset="0.34" stop-color="white"/>
<stop offset="0.54" stop-color="white"/>
<stop offset="0.91" stop-color="#D3DBED"/>
<stop offset="1" stop-color="#D3DBED"/>
</linearGradient>
<linearGradient id="paint2_linear_401_1115" x1="126.509" y1="13.6389" x2="143.13" y2="30.0474" gradientUnits="userSpaceOnUse">
<stop stop-color="#004B93"/>
<stop offset="0.1296" stop-color="#004B93"/>
<stop offset="0.1708" stop-color="#00559A"/>
<stop offset="0.3067" stop-color="#5378B3"/>
<stop offset="0.4079" stop-color="#7A92C5"/>
<stop offset="0.4622" stop-color="#889DCC"/>
<stop offset="0.4697" stop-color="#8198C9"/>
<stop offset="0.5489" stop-color="#3A6AA9"/>
<stop offset="0.6069" stop-color="#005399"/>
<stop offset="0.6371" stop-color="#004B93"/>
<stop offset="0.9166" stop-color="#004B93"/>
</linearGradient>
<linearGradient id="paint3_linear_401_1115" x1="142.528" y1="16.7897" x2="148.935" y2="20.9508" gradientUnits="userSpaceOnUse">
<stop stop-color="#C00318"/>
<stop offset="0.5" stop-color="#E2001A"/>
<stop offset="1" stop-color="#F5B3B3"/>
</linearGradient>
<linearGradient id="paint4_linear_401_1115" x1="147.84" y1="2.47831" x2="165.501" y2="17.1615" gradientUnits="userSpaceOnUse">
<stop stop-color="#D4DEEF"/>
<stop offset="0.0730286" stop-color="#D4DEEF"/>
<stop offset="0.1174" stop-color="#BCC9E3"/>
<stop offset="0.2114" stop-color="#7E96C5"/>
<stop offset="0.3463" stop-color="#00559A"/>
<stop offset="0.3708" stop-color="#004B93"/>
<stop offset="0.4288" stop-color="#004F96"/>
<stop offset="0.5195" stop-color="#0F5B9E"/>
<stop offset="0.6316" stop-color="#4972AD"/>
<stop offset="0.7606" stop-color="#7E96C5"/>
<stop offset="0.9024" stop-color="#BDCAE4"/>
<stop offset="0.9494" stop-color="#D4DEEF"/>
<stop offset="1" stop-color="#D4DEEF"/>
</linearGradient>
<linearGradient id="paint5_linear_401_1115" x1="151.395" y1="-1.45287" x2="168.17" y2="12.4939" gradientUnits="userSpaceOnUse">
<stop stop-color="white"/>
<stop offset="0.1742" stop-color="white"/>
<stop offset="0.2463" stop-color="#FAFBFD"/>
<stop offset="0.3435" stop-color="#EBEEF7"/>
<stop offset="0.3865" stop-color="#E3E7F3"/>
<stop offset="0.4746" stop-color="#F0F2F9"/>
<stop offset="0.5941" stop-color="#FBFCFD"/>
<stop offset="0.7" stop-color="white"/>
<stop offset="1" stop-color="white"/>
</linearGradient>
<linearGradient id="paint6_linear_401_1115" x1="145.01" y1="8.00279" x2="160.056" y2="20.512" gradientUnits="userSpaceOnUse">
<stop stop-color="#F5B3B3"/>
<stop offset="0.0561829" stop-color="#F5B3B3"/>
<stop offset="0.071738" stop-color="#F3A5A1"/>
<stop offset="0.1265" stop-color="#EC7867"/>
<stop offset="0.1763" stop-color="#E85240"/>
<stop offset="0.2193" stop-color="#E53229"/>
<stop offset="0.2541" stop-color="#E3101E"/>
<stop offset="0.2761" stop-color="#E2001A"/>
<stop offset="0.294" stop-color="#DF001A"/>
<stop offset="0.4383" stop-color="#C90019"/>
<stop offset="0.5169" stop-color="#C00318"/>
<stop offset="0.574" stop-color="#C90019"/>
<stop offset="0.6789" stop-color="#DF001A"/>
<stop offset="0.6919" stop-color="#E2001A"/>
<stop offset="0.8914" stop-color="#F3A9A6"/>
<stop offset="1" stop-color="#F5B3B3"/>
</linearGradient>
<clipPath id="clip0_401_1115">
<rect width="170" height="30" fill="white"/>
</clipPath>
</defs>
</svg>
